<?xml version="1.0" encoding="UTF-8" standalone="no"?>
<!DOCTYPE svg PUBLIC "-//W3C//DTD SVG 1.1//EN" "http://www.w3.org/Graphics/SVG/1.1/DTD/svg11.dtd">
<svg width="100%" height="100%" viewBox="0 0 2540 603" version="1.1" xmlns="http://www.w3.org/2000/svg" xmlns:xlink="http://www.w3.org/1999/xlink" xml:space="preserve" xmlns:serif="http://www.serif.com/" style="fill-rule:evenodd;clip-rule:evenodd;stroke-linejoin:round;stroke-miterlimit:2;">
    <g transform="matrix(1,0,0,1,-461.735,-191.823)">
        <g transform="matrix(0.978236,0,0,0.975904,26.0503,1.71987)">
            <rect x="445.378" y="194.797" width="2596.3" height="617.105" style="fill:white;"/>
        </g>
        <g transform="matrix(4.16667,0,0,4.16667,-302.531,-1388.99)">
            <rect x="72.562" y="321.774" width="940.016" height="983.481" style="fill:rgb(146,7,28);"/>
        </g>
        <g transform="matrix(0.686734,0,0,0.686734,371.854,-55.4511)">
            <g>
                <g transform="matrix(1,0,0,1,-860.431,25.8993)">
                    <path d="M1039.21,418.005L1570.22,418.479C1570.22,418.479 1604.21,428.614 1581.1,459.76C1557.98,490.907 1521.88,536.948 1521.88,536.948C1521.88,536.948 1504.42,554.87 1500.72,581.907C1497.01,608.943 1508.29,660.081 1508.29,660.081C1508.29,660.081 1520.49,716.626 1467.65,716.626L1478.62,757.259C1478.62,757.259 1564.68,741.346 1549.38,659.927L1542.43,609.561C1542.43,609.561 1534.4,586.078 1557.88,557.033C1581.36,527.988 1623.23,470.516 1623.23,470.516C1623.23,470.516 1658.15,400.22 1572.4,377.509L1038.85,376.733L1039.21,418.005Z" style="fill:white;"/>
                </g>
                <g transform="matrix(1,0,0,1,-860.431,25.8993)">
                    <path d="M1795.28,436.693L1301.17,1070.74L1780.19,1071.5L1779.82,1029.63L1387.77,1029.15L1794.79,503.709L1795.28,436.693Z" style="fill:white;"/>
                </g>
                <g transform="matrix(1,0,0,1,-860.431,25.8993)">
                    <path d="M1400.9,728.438C1400.9,728.438 1335.82,736.356 1335.82,799.505C1335.82,799.505 1336.01,817.659 1349.72,862.462C1363.43,907.266 1329.83,941.188 1257.41,949.559L1266.49,989.408C1266.49,989.408 1448.18,971.409 1378.5,814.711C1378.5,814.711 1365.24,775.092 1409.6,769.057L1400.9,728.438Z" style="fill:white;"/>
                </g>
                <g transform="matrix(1,0,0,1,-860.431,25.8993)">
                    <path d="M1201.08,1009.94L1191.65,971.044C1191.65,971.044 1168.08,973.99 1144.5,1004.64C1120.93,1035.28 1024.86,1157.87 1024.86,1157.87L1141.55,1158.46C1141.55,1158.46 1170.43,1162.58 1191.65,1144.31L1172.2,1106.6C1172.2,1106.6 1167.17,1115.99 1142.84,1116.57C1118.5,1117.15 1111.16,1116.38 1111.16,1116.38L1171.61,1036.04C1171.61,1036.04 1181.08,1022.4 1199.87,1010.82L1201.08,1009.94Z" style="fill:white;"/>
                </g>
            </g>
            <g transform="matrix(1,0,0,1,-860.431,25.8993)">
                <path d="M1487.31,613.162L1493.64,652.691C1493.64,652.691 1436.01,652.691 1450.49,706.402C1464.98,760.113 1467.09,769.166 1467.09,769.166C1467.09,769.166 1485.5,834.947 1405.83,861.501L1394.37,820.765C1394.37,820.765 1442.35,817.747 1423.34,760.717C1404.33,703.686 1413.68,726.921 1413.68,726.921C1413.68,726.921 1380.18,629.456 1482.78,612.86L1487.31,613.162Z" style="fill:white;"/>
            </g>
            <g>
                <g transform="matrix(1,0,0,1,-860.431,25.8993)">
                    <path d="M1487.31,613.162L1493.64,652.691C1493.64,652.691 1436.01,652.691 1450.49,706.402C1464.98,760.113 1467.09,769.166 1467.09,769.166C1467.09,769.166 1485.5,834.947 1405.83,861.501L1394.37,820.765C1394.37,820.765 1442.35,817.747 1423.34,760.717C1404.33,703.686 1413.68,726.921 1413.68,726.921C1413.68,726.921 1380.18,629.456 1482.78,612.86L1487.31,613.162Z" style="fill:rgb(253,184,55);"/>
                </g>
                <g transform="matrix(1,0,0,1,-860.431,25.8993)">
                    <path d="M1038.59,505.889L1431.16,506.493L1023.8,1030.93L1023.8,1099.13L1517.46,464.248L1038.59,463.343L1038.59,505.889Z" style="fill:rgb(253,184,55);"/>
                </g>
                <g transform="matrix(1,0,0,1,-860.431,25.8993)">
                    <path d="M1331.45,844.494L1252.69,874.367C1252.69,874.367 1175.75,901.524 1211.96,993.256C1211.96,993.256 1217.39,1016.79 1217.39,1034.29C1217.39,1034.29 1135.61,1121.2 1242.73,1156.8L1779.24,1157.71L1779.24,1116.97L1248.47,1116.07C1248.47,1116.07 1214.97,1110.33 1237.3,1076.54C1259.63,1042.74 1256.92,1038.52 1257.82,1028.26C1258.73,1018 1251.49,979.979 1245.15,958.555C1238.81,937.131 1238.51,914.801 1340.2,884.023L1331.45,844.494Z" style="fill:rgb(253,184,55);"/>
                </g>
                <g transform="matrix(1,0,0,1,-860.431,25.8993)">
                    <path d="M1554.9,604.526L1560.93,645.262C1560.93,645.262 1585.45,648.279 1611.85,613.201C1638.26,578.123 1793.94,378.12 1793.94,378.12L1673.24,377.177C1673.24,377.177 1655.32,373.877 1627.98,393.679L1647.31,427.626C1647.31,427.626 1651.55,414.424 1707.19,418.668L1578,587.458C1578,587.458 1572.34,598.774 1561.03,603.96C1549.71,609.146 1554.9,604.526 1554.9,604.526Z" style="fill:rgb(253,184,55);"/>
                </g>
            </g>
        </g>
        <g transform="matrix(1,0,0,1,-1044.84,-455.579)">
            <text x="2170.8px" y="862.546px" style="font-family:'GoudyOldStyleT-Bold', 'Goudy Old Style', serif;font-weight:700;font-stretch:semi-expanded;font-size:200px;fill:white;">Quantum Com<tspan x="3419.62px 3525.58px " y="862.546px 862.546px ">pu</tspan>ting</text>
            <text x="2170.8px" y="1126.22px" style="font-family:'GoudyOldStyleT-Bold', 'Goudy Old Style', serif;font-weight:700;font-stretch:semi-expanded;font-size:200px;fill:white;">&amp; Quantum Mat<tspan x="3575.58px 3660.84px " y="1126.22px 1126.22px ">er</tspan>ials</text>
        </g>
    </g>
</svg>
