<?xml version="1.0" encoding="UTF-8" standalone="no"?>
<!DOCTYPE svg PUBLIC "-//W3C//DTD SVG 1.1//EN" "http://www.w3.org/Graphics/SVG/1.1/DTD/svg11.dtd">
<svg width="100%" height="100%" viewBox="0 0 2386 677" version="1.1" xmlns="http://www.w3.org/2000/svg" xmlns:xlink="http://www.w3.org/1999/xlink" xml:space="preserve" xmlns:serif="http://www.serif.com/" style="fill-rule:evenodd;clip-rule:evenodd;stroke-linecap:round;stroke-linejoin:round;stroke-miterlimit:1.5;">
    <g transform="matrix(1,0,0,1,-1440.5,-436.5)">
        <g transform="matrix(0.632068,0,0,0.310393,1443.632068,439)">
            <rect x="-1" y="0" width="3767" height="2165" style="fill:rgb(146,7,28);stroke:rgb(146,7,28);stroke-width:10.04px;"/>
        </g>
        <g>
            <g transform="matrix(1,0,0,1,309,-445)">
                <g transform="matrix(0.999997,0.002297,-0.002297,0.999997,-121.800674,-607.657926)">
                    <g transform="matrix(1,0,0,1,-10,1232.758227)">
                        <g transform="matrix(1.901678,47.962315,-47.962315,1.901678,1299.043252,589.769083)">
                            <path d="M0.857,0.014L0.714,0.014L0.655,-0.047C0.592,-0.007 0.522,0.014 0.445,0.014C0.345,0.014 0.257,-0.02 0.179,-0.088C0.095,-0.162 0.053,-0.258 0.053,-0.374C0.053,-0.487 0.093,-0.582 0.172,-0.658C0.25,-0.731 0.341,-0.768 0.447,-0.768C0.542,-0.768 0.628,-0.736 0.704,-0.671C0.795,-0.594 0.841,-0.493 0.841,-0.368C0.841,-0.271 0.805,-0.184 0.733,-0.108L0.857,0.014ZM0.544,-0.298L0.654,-0.189C0.702,-0.24 0.726,-0.302 0.726,-0.375C0.726,-0.457 0.699,-0.524 0.646,-0.579C0.592,-0.634 0.525,-0.661 0.445,-0.661C0.365,-0.661 0.298,-0.634 0.246,-0.579C0.194,-0.525 0.167,-0.456 0.167,-0.373C0.167,-0.291 0.194,-0.225 0.249,-0.173C0.305,-0.119 0.369,-0.093 0.441,-0.093C0.491,-0.093 0.535,-0.104 0.575,-0.126L0.397,-0.298L0.544,-0.298Z" style="fill:white;fill-rule:nonzero;stroke:white;stroke-width:0.03px;stroke-linecap:butt;stroke-miterlimit:2;"/>
                        </g>
                        <g transform="matrix(7.519758,47.407312,-47.407312,7.519758,1301.343193,633.990959)">
                            <path d="M0.179,-0.476L0.179,-0.203C0.179,-0.124 0.21,-0.084 0.272,-0.084C0.335,-0.084 0.366,-0.124 0.366,-0.203L0.366,-0.476L0.476,-0.476L0.476,-0.2C0.476,-0.162 0.471,-0.129 0.461,-0.102C0.452,-0.077 0.437,-0.055 0.414,-0.035C0.377,-0.002 0.33,0.014 0.272,0.014C0.215,0.014 0.168,-0.002 0.131,-0.035C0.109,-0.055 0.092,-0.077 0.083,-0.102C0.074,-0.124 0.069,-0.157 0.069,-0.2L0.069,-0.476L0.179,-0.476Z" style="fill:white;fill-rule:nonzero;stroke:white;stroke-width:0.03px;stroke-linecap:butt;stroke-miterlimit:2;"/>
                        </g>
                        <g transform="matrix(11.935277,46.492464,-46.492464,11.935277,1305.646121,660.998567)">
                            <path d="M0.42,-0.476L0.53,-0.476L0.53,-0L0.42,-0L0.42,-0.05C0.375,-0.007 0.326,0.014 0.274,0.014C0.208,0.014 0.154,-0.01 0.111,-0.058C0.068,-0.106 0.047,-0.167 0.047,-0.239C0.047,-0.311 0.068,-0.37 0.111,-0.417C0.153,-0.465 0.207,-0.489 0.271,-0.489C0.326,-0.489 0.376,-0.466 0.42,-0.42L0.42,-0.476ZM0.159,-0.239C0.159,-0.194 0.171,-0.157 0.196,-0.128C0.221,-0.099 0.252,-0.084 0.291,-0.084C0.331,-0.084 0.364,-0.098 0.389,-0.126C0.414,-0.155 0.427,-0.192 0.427,-0.237C0.427,-0.281 0.414,-0.318 0.389,-0.347C0.364,-0.375 0.332,-0.39 0.292,-0.39C0.254,-0.39 0.222,-0.375 0.197,-0.347C0.172,-0.318 0.159,-0.282 0.159,-0.239Z" style="fill:white;fill-rule:nonzero;stroke:white;stroke-width:0.03px;stroke-linecap:butt;stroke-miterlimit:2;"/>
                        </g>
                        <g transform="matrix(16.437273,45.09785,-45.09785,16.437273,1313.255913,690.045225)">
                            <path d="M0.069,-0.476L0.18,-0.476L0.18,-0.432C0.218,-0.47 0.261,-0.489 0.31,-0.489C0.365,-0.489 0.408,-0.471 0.439,-0.437C0.466,-0.407 0.479,-0.359 0.479,-0.292L0.479,-0L0.369,-0L0.369,-0.266C0.369,-0.312 0.362,-0.345 0.349,-0.363C0.336,-0.381 0.313,-0.39 0.28,-0.39C0.243,-0.39 0.217,-0.378 0.202,-0.354C0.187,-0.33 0.18,-0.289 0.18,-0.229L0.18,-0L0.069,-0L0.069,-0.476Z" style="fill:white;fill-rule:nonzero;stroke:white;stroke-width:0.03px;stroke-linecap:butt;stroke-miterlimit:2;"/>
                        </g>
                        <g transform="matrix(19.568344,43.830126,-43.830126,19.568344,1322.782128,715.468012)">
                            <path d="M0.183,-0.373L0.183,-0L0.073,-0L0.073,-0.373L0.026,-0.373L0.026,-0.476L0.073,-0.476L0.073,-0.65L0.183,-0.65L0.183,-0.476L0.268,-0.476L0.268,-0.373L0.183,-0.373Z" style="fill:white;fill-rule:nonzero;stroke:white;stroke-width:0.03px;stroke-linecap:butt;stroke-miterlimit:2;"/>
                        </g>
                        <g transform="matrix(22.449352,42.42672,-42.42672,22.449352,1328.305481,728.34064)">
                            <path d="M0.179,-0.476L0.179,-0.203C0.179,-0.124 0.21,-0.084 0.272,-0.084C0.335,-0.084 0.366,-0.124 0.366,-0.203L0.366,-0.476L0.476,-0.476L0.476,-0.2C0.476,-0.162 0.471,-0.129 0.461,-0.102C0.452,-0.077 0.437,-0.055 0.414,-0.035C0.377,-0.002 0.33,0.014 0.272,0.014C0.215,0.014 0.168,-0.002 0.131,-0.035C0.109,-0.055 0.092,-0.077 0.083,-0.102C0.074,-0.124 0.069,-0.157 0.069,-0.2L0.069,-0.476L0.179,-0.476Z" style="fill:white;fill-rule:nonzero;stroke:white;stroke-width:0.03px;stroke-linecap:butt;stroke-miterlimit:2;"/>
                        </g>
                        <g transform="matrix(27.01137,39.678532,-39.678532,27.01137,1340.971531,752.810469)">
                            <path d="M0.069,-0.476L0.179,-0.476L0.179,-0.432C0.2,-0.454 0.218,-0.469 0.233,-0.477C0.249,-0.485 0.269,-0.489 0.293,-0.489C0.347,-0.489 0.39,-0.465 0.421,-0.418C0.455,-0.465 0.502,-0.489 0.561,-0.489C0.668,-0.489 0.722,-0.424 0.722,-0.294L0.722,-0L0.611,-0L0.611,-0.264C0.611,-0.31 0.606,-0.342 0.595,-0.361C0.583,-0.38 0.565,-0.39 0.539,-0.39C0.508,-0.39 0.486,-0.378 0.472,-0.355C0.459,-0.333 0.452,-0.296 0.452,-0.246L0.452,-0L0.341,-0L0.341,-0.263C0.341,-0.347 0.317,-0.39 0.268,-0.39C0.237,-0.39 0.215,-0.378 0.2,-0.355C0.186,-0.332 0.179,-0.295 0.179,-0.246L0.179,-0L0.069,-0L0.069,-0.476Z" style="fill:white;fill-rule:nonzero;stroke:white;stroke-width:0.03px;stroke-linecap:butt;stroke-miterlimit:2;"/>
                        </g>
                        <g transform="matrix(34.205379,33.674798,-33.674798,34.205379,1373.150551,797.749992)">
                            <path d="M0.064,-0L0.223,-0.811L0.481,-0.225L0.75,-0.811L0.892,-0L0.775,-0L0.703,-0.455L0.479,0.035L0.263,-0.456L0.182,-0L0.064,-0Z" style="fill:white;fill-rule:nonzero;stroke:white;stroke-width:0.03px;stroke-linecap:butt;stroke-miterlimit:2;"/>
                        </g>
                        <g transform="matrix(38.209004,29.052918,-29.052918,38.209004,1407.625095,830.715107)">
                            <path d="M0.42,-0.476L0.53,-0.476L0.53,-0L0.42,-0L0.42,-0.05C0.375,-0.007 0.326,0.014 0.274,0.014C0.208,0.014 0.154,-0.01 0.111,-0.058C0.068,-0.106 0.047,-0.167 0.047,-0.239C0.047,-0.311 0.068,-0.37 0.111,-0.417C0.153,-0.465 0.207,-0.489 0.271,-0.489C0.326,-0.489 0.376,-0.466 0.42,-0.42L0.42,-0.476ZM0.159,-0.239C0.159,-0.194 0.171,-0.157 0.196,-0.128C0.221,-0.099 0.252,-0.084 0.291,-0.084C0.331,-0.084 0.364,-0.098 0.389,-0.126C0.414,-0.155 0.427,-0.192 0.427,-0.237C0.427,-0.281 0.414,-0.318 0.389,-0.347C0.364,-0.375 0.332,-0.39 0.292,-0.39C0.254,-0.39 0.222,-0.375 0.197,-0.347C0.172,-0.318 0.159,-0.282 0.159,-0.239Z" style="fill:white;fill-rule:nonzero;stroke:white;stroke-width:0.03px;stroke-linecap:butt;stroke-miterlimit:2;"/>
                        </g>
                        <g transform="matrix(40.306255,26.065415,-26.065415,40.306255,1431.515353,848.458006)">
                            <path d="M0.183,-0.373L0.183,-0L0.073,-0L0.073,-0.373L0.026,-0.373L0.026,-0.476L0.073,-0.476L0.073,-0.65L0.183,-0.65L0.183,-0.476L0.268,-0.476L0.268,-0.373L0.183,-0.373Z" style="fill:white;fill-rule:nonzero;stroke:white;stroke-width:0.03px;stroke-linecap:butt;stroke-miterlimit:2;"/>
                        </g>
                        <g transform="matrix(41.998493,23.240623,-23.240623,41.998493,1443.521494,856.464366)">
                            <path d="M0.502,-0.212L0.162,-0.212C0.165,-0.173 0.177,-0.142 0.2,-0.119C0.222,-0.096 0.251,-0.084 0.286,-0.084C0.313,-0.084 0.336,-0.091 0.354,-0.104C0.372,-0.117 0.392,-0.141 0.414,-0.176L0.507,-0.125C0.493,-0.1 0.477,-0.079 0.461,-0.062C0.445,-0.044 0.428,-0.03 0.41,-0.019C0.392,-0.008 0.372,0.001 0.351,0.006C0.33,0.011 0.307,0.014 0.282,0.014C0.211,0.014 0.154,-0.009 0.111,-0.055C0.068,-0.101 0.047,-0.161 0.047,-0.237C0.047,-0.312 0.068,-0.373 0.109,-0.42C0.151,-0.466 0.207,-0.489 0.276,-0.489C0.346,-0.489 0.402,-0.466 0.442,-0.422C0.483,-0.378 0.503,-0.316 0.503,-0.238L0.502,-0.212ZM0.39,-0.302C0.374,-0.36 0.337,-0.39 0.279,-0.39C0.265,-0.39 0.253,-0.388 0.241,-0.384C0.229,-0.379 0.219,-0.374 0.209,-0.366C0.2,-0.358 0.191,-0.349 0.185,-0.338C0.178,-0.328 0.173,-0.315 0.169,-0.302L0.39,-0.302Z" style="fill:white;fill-rule:nonzero;stroke:white;stroke-width:0.03px;stroke-linecap:butt;stroke-miterlimit:2;"/>
                        </g>
                        <g transform="matrix(43.792678,19.652007,-19.652007,43.792678,1467.721503,869.689514)">
                            <path d="M0.069,-0.476L0.179,-0.476L0.179,-0.433C0.199,-0.454 0.217,-0.469 0.233,-0.477C0.249,-0.485 0.268,-0.489 0.29,-0.489C0.319,-0.489 0.349,-0.479 0.38,-0.46L0.33,-0.36C0.309,-0.375 0.289,-0.382 0.269,-0.382C0.209,-0.382 0.179,-0.337 0.179,-0.247L0.179,-0L0.069,-0L0.069,-0.476Z" style="fill:white;fill-rule:nonzero;stroke:white;stroke-width:0.03px;stroke-linecap:butt;stroke-miterlimit:2;"/>
                        </g>
                        <g transform="matrix(44.689671,17.516657,-17.516657,44.689671,1485.319333,877.520441)">
                            <path d="M0.179,-0.476L0.179,-0L0.069,-0L0.069,-0.476L0.179,-0.476ZM0.053,-0.673C0.053,-0.693 0.06,-0.709 0.074,-0.723C0.088,-0.737 0.104,-0.744 0.124,-0.744C0.144,-0.744 0.161,-0.737 0.175,-0.723C0.189,-0.709 0.196,-0.693 0.196,-0.673C0.196,-0.653 0.189,-0.636 0.175,-0.622C0.161,-0.608 0.144,-0.601 0.125,-0.601C0.105,-0.601 0.088,-0.608 0.074,-0.622C0.06,-0.636 0.053,-0.653 0.053,-0.673Z" style="fill:white;fill-rule:nonzero;stroke:white;stroke-width:0.03px;stroke-linecap:butt;stroke-miterlimit:2;"/>
                        </g>
                        <g transform="matrix(45.797215,14.374112,-14.374112,45.797215,1497.205361,882.438926)">
                            <path d="M0.42,-0.476L0.53,-0.476L0.53,-0L0.42,-0L0.42,-0.05C0.375,-0.007 0.326,0.014 0.274,0.014C0.208,0.014 0.154,-0.01 0.111,-0.058C0.068,-0.106 0.047,-0.167 0.047,-0.239C0.047,-0.311 0.068,-0.37 0.111,-0.417C0.153,-0.465 0.207,-0.489 0.271,-0.489C0.326,-0.489 0.376,-0.466 0.42,-0.42L0.42,-0.476ZM0.159,-0.239C0.159,-0.194 0.171,-0.157 0.196,-0.128C0.221,-0.099 0.252,-0.084 0.291,-0.084C0.331,-0.084 0.364,-0.098 0.389,-0.126C0.414,-0.155 0.427,-0.192 0.427,-0.237C0.427,-0.281 0.414,-0.318 0.389,-0.347C0.364,-0.375 0.332,-0.39 0.292,-0.39C0.254,-0.39 0.222,-0.375 0.197,-0.347C0.172,-0.318 0.159,-0.282 0.159,-0.239Z" style="fill:white;fill-rule:nonzero;stroke:white;stroke-width:0.03px;stroke-linecap:butt;stroke-miterlimit:2;"/>
                        </g>
                        <g transform="matrix(46.722856,10.99885,-10.99885,46.722856,1525.603814,890.976018)">
                            <rect x="0.069" y="-0.825" width="0.11" height="0.825" style="fill:white;fill-rule:nonzero;stroke:white;stroke-width:0.03px;stroke-linecap:butt;stroke-miterlimit:2;"/>
                        </g>
                        <g transform="matrix(47.260336,8.394085,-8.394085,47.260336,1537.862213,893.954794)">
                            <path d="M0.346,-0.395L0.255,-0.346C0.241,-0.375 0.223,-0.39 0.202,-0.39C0.192,-0.39 0.183,-0.387 0.176,-0.38C0.169,-0.373 0.165,-0.365 0.165,-0.354C0.165,-0.336 0.186,-0.318 0.229,-0.3C0.287,-0.275 0.326,-0.252 0.346,-0.231C0.366,-0.21 0.376,-0.181 0.376,-0.146C0.376,-0.1 0.36,-0.061 0.326,-0.03C0.293,-0.001 0.253,0.014 0.207,0.014C0.127,0.014 0.07,-0.025 0.037,-0.103L0.131,-0.146C0.144,-0.124 0.154,-0.109 0.161,-0.103C0.174,-0.091 0.19,-0.084 0.208,-0.084C0.246,-0.084 0.264,-0.101 0.264,-0.135C0.264,-0.155 0.25,-0.173 0.221,-0.19C0.21,-0.195 0.199,-0.201 0.188,-0.206C0.177,-0.211 0.166,-0.217 0.154,-0.222C0.122,-0.238 0.1,-0.253 0.087,-0.269C0.07,-0.289 0.062,-0.314 0.062,-0.346C0.062,-0.387 0.076,-0.421 0.104,-0.448C0.133,-0.475 0.169,-0.489 0.21,-0.489C0.271,-0.489 0.316,-0.457 0.346,-0.395Z" style="fill:white;fill-rule:nonzero;stroke:white;stroke-width:0.03px;stroke-linecap:butt;stroke-miterlimit:2;"/>
                        </g>
                        <g transform="matrix(47.984072,1.236467,-1.236467,47.984072,1573.635191,899.740036)">
                            <path d="M0.387,-0.419L0.522,-0.255L0.527,-0.26C0.542,-0.276 0.555,-0.292 0.568,-0.307C0.581,-0.322 0.594,-0.338 0.606,-0.354L0.68,-0.277C0.671,-0.264 0.659,-0.249 0.644,-0.232C0.629,-0.215 0.612,-0.195 0.591,-0.172L0.731,-0L0.589,-0L0.514,-0.092C0.445,-0.021 0.373,0.015 0.299,0.015C0.232,0.015 0.175,-0.007 0.129,-0.049C0.083,-0.092 0.061,-0.145 0.061,-0.208C0.061,-0.284 0.097,-0.346 0.169,-0.396L0.218,-0.43C0.219,-0.43 0.22,-0.431 0.222,-0.432C0.223,-0.433 0.226,-0.435 0.229,-0.438C0.179,-0.491 0.154,-0.543 0.154,-0.594C0.154,-0.645 0.17,-0.686 0.204,-0.718C0.237,-0.75 0.281,-0.766 0.334,-0.766C0.386,-0.766 0.429,-0.751 0.463,-0.72C0.497,-0.689 0.514,-0.65 0.514,-0.603C0.514,-0.57 0.504,-0.541 0.486,-0.514C0.468,-0.488 0.435,-0.456 0.387,-0.419ZM0.296,-0.355L0.29,-0.351C0.243,-0.319 0.212,-0.293 0.195,-0.273C0.178,-0.254 0.17,-0.233 0.17,-0.211C0.17,-0.18 0.182,-0.152 0.208,-0.125C0.234,-0.1 0.262,-0.088 0.293,-0.088C0.337,-0.088 0.388,-0.117 0.445,-0.174L0.296,-0.355ZM0.321,-0.5L0.33,-0.506C0.346,-0.518 0.359,-0.529 0.37,-0.538C0.38,-0.547 0.388,-0.554 0.392,-0.561C0.402,-0.573 0.407,-0.587 0.407,-0.605C0.407,-0.625 0.4,-0.641 0.387,-0.653C0.373,-0.666 0.355,-0.672 0.333,-0.672C0.312,-0.672 0.295,-0.666 0.281,-0.653C0.267,-0.641 0.26,-0.625 0.26,-0.606C0.26,-0.584 0.269,-0.562 0.287,-0.541L0.315,-0.507C0.316,-0.505 0.318,-0.503 0.321,-0.5Z" style="fill:white;fill-rule:nonzero;stroke:white;stroke-width:0.03px;stroke-linecap:butt;stroke-miterlimit:2;"/>
                        </g>
                        <g transform="matrix(47.419085,-7.44516,7.44516,47.419085,1625.86225,900.069631)">
                            <path d="M0.857,0.014L0.714,0.014L0.655,-0.047C0.592,-0.007 0.522,0.014 0.445,0.014C0.345,0.014 0.257,-0.02 0.179,-0.088C0.095,-0.162 0.053,-0.258 0.053,-0.374C0.053,-0.487 0.093,-0.582 0.172,-0.658C0.25,-0.731 0.341,-0.768 0.447,-0.768C0.542,-0.768 0.628,-0.736 0.704,-0.671C0.795,-0.594 0.841,-0.493 0.841,-0.368C0.841,-0.271 0.805,-0.184 0.733,-0.108L0.857,0.014ZM0.544,-0.298L0.654,-0.189C0.702,-0.24 0.726,-0.302 0.726,-0.375C0.726,-0.457 0.699,-0.524 0.646,-0.579C0.592,-0.634 0.525,-0.661 0.445,-0.661C0.365,-0.661 0.298,-0.634 0.246,-0.579C0.194,-0.525 0.167,-0.456 0.167,-0.373C0.167,-0.291 0.194,-0.225 0.249,-0.173C0.305,-0.119 0.369,-0.093 0.441,-0.093C0.491,-0.093 0.535,-0.104 0.575,-0.126L0.397,-0.298L0.544,-0.298Z" style="fill:white;fill-rule:nonzero;stroke:white;stroke-width:0.03px;stroke-linecap:butt;stroke-miterlimit:2;"/>
                        </g>
                        <g transform="matrix(46.201114,-13.017568,13.017568,46.201114,1669.556898,892.644805)">
                            <path d="M0.179,-0.476L0.179,-0.203C0.179,-0.124 0.21,-0.084 0.272,-0.084C0.335,-0.084 0.366,-0.124 0.366,-0.203L0.366,-0.476L0.476,-0.476L0.476,-0.2C0.476,-0.162 0.471,-0.129 0.461,-0.102C0.452,-0.077 0.437,-0.055 0.414,-0.035C0.377,-0.002 0.33,0.014 0.272,0.014C0.215,0.014 0.168,-0.002 0.131,-0.035C0.109,-0.055 0.092,-0.077 0.083,-0.102C0.074,-0.124 0.069,-0.157 0.069,-0.2L0.069,-0.476L0.179,-0.476Z" style="fill:white;fill-rule:nonzero;stroke:white;stroke-width:0.03px;stroke-linecap:butt;stroke-miterlimit:2;"/>
                        </g>
                        <g transform="matrix(44.773284,-17.301822,17.301822,44.773284,1695.869409,885.210549)">
                            <path d="M0.42,-0.476L0.53,-0.476L0.53,-0L0.42,-0L0.42,-0.05C0.375,-0.007 0.326,0.014 0.274,0.014C0.208,0.014 0.154,-0.01 0.111,-0.058C0.068,-0.106 0.047,-0.167 0.047,-0.239C0.047,-0.311 0.068,-0.37 0.111,-0.417C0.153,-0.465 0.207,-0.489 0.271,-0.489C0.326,-0.489 0.376,-0.466 0.42,-0.42L0.42,-0.476ZM0.159,-0.239C0.159,-0.194 0.171,-0.157 0.196,-0.128C0.221,-0.099 0.252,-0.084 0.291,-0.084C0.331,-0.084 0.364,-0.098 0.389,-0.126C0.414,-0.155 0.427,-0.192 0.427,-0.237C0.427,-0.281 0.414,-0.318 0.389,-0.347C0.364,-0.375 0.332,-0.39 0.292,-0.39C0.254,-0.39 0.222,-0.375 0.197,-0.347C0.172,-0.318 0.159,-0.282 0.159,-0.239Z" style="fill:white;fill-rule:nonzero;stroke:white;stroke-width:0.03px;stroke-linecap:butt;stroke-miterlimit:2;"/>
                        </g>
                        <g transform="matrix(42.865516,-21.599711,21.599711,42.865516,1723.836685,874.242882)">
                            <path d="M0.069,-0.476L0.18,-0.476L0.18,-0.432C0.218,-0.47 0.261,-0.489 0.31,-0.489C0.365,-0.489 0.408,-0.471 0.439,-0.437C0.466,-0.407 0.479,-0.359 0.479,-0.292L0.479,-0L0.369,-0L0.369,-0.266C0.369,-0.312 0.362,-0.345 0.349,-0.363C0.336,-0.381 0.313,-0.39 0.28,-0.39C0.243,-0.39 0.217,-0.378 0.202,-0.354C0.187,-0.33 0.18,-0.289 0.18,-0.229L0.18,-0L0.069,-0L0.069,-0.476Z" style="fill:white;fill-rule:nonzero;stroke:white;stroke-width:0.03px;stroke-linecap:butt;stroke-miterlimit:2;"/>
                        </g>
                        <g transform="matrix(41.24943,-24.545561,24.545561,41.24943,1747.962641,861.813977)">
                            <path d="M0.183,-0.373L0.183,-0L0.073,-0L0.073,-0.373L0.026,-0.373L0.026,-0.476L0.073,-0.476L0.073,-0.65L0.183,-0.65L0.183,-0.476L0.268,-0.476L0.268,-0.373L0.183,-0.373Z" style="fill:white;fill-rule:nonzero;stroke:white;stroke-width:0.03px;stroke-linecap:butt;stroke-miterlimit:2;"/>
                        </g>
                        <g transform="matrix(39.536178,-27.219307,27.219307,39.536178,1760.038717,854.866584)">
                            <path d="M0.179,-0.476L0.179,-0.203C0.179,-0.124 0.21,-0.084 0.272,-0.084C0.335,-0.084 0.366,-0.124 0.366,-0.203L0.366,-0.476L0.476,-0.476L0.476,-0.2C0.476,-0.162 0.471,-0.129 0.461,-0.102C0.452,-0.077 0.437,-0.055 0.414,-0.035C0.377,-0.002 0.33,0.014 0.272,0.014C0.215,0.014 0.168,-0.002 0.131,-0.035C0.109,-0.055 0.092,-0.077 0.083,-0.102C0.074,-0.124 0.069,-0.157 0.069,-0.2L0.069,-0.476L0.179,-0.476Z" style="fill:white;fill-rule:nonzero;stroke:white;stroke-width:0.03px;stroke-linecap:butt;stroke-miterlimit:2;"/>
                        </g>
                        <g transform="matrix(36.290532,-31.416513,31.416513,36.290532,1782.894012,839.431608)">
                            <path d="M0.069,-0.476L0.179,-0.476L0.179,-0.432C0.2,-0.454 0.218,-0.469 0.233,-0.477C0.249,-0.485 0.269,-0.489 0.293,-0.489C0.347,-0.489 0.39,-0.465 0.421,-0.418C0.455,-0.465 0.502,-0.489 0.561,-0.489C0.668,-0.489 0.722,-0.424 0.722,-0.294L0.722,-0L0.611,-0L0.611,-0.264C0.611,-0.31 0.606,-0.342 0.595,-0.361C0.583,-0.38 0.565,-0.39 0.539,-0.39C0.508,-0.39 0.486,-0.378 0.472,-0.355C0.459,-0.333 0.452,-0.296 0.452,-0.246L0.452,-0L0.341,-0L0.341,-0.263C0.341,-0.347 0.317,-0.39 0.268,-0.39C0.237,-0.39 0.215,-0.378 0.2,-0.355C0.186,-0.332 0.179,-0.295 0.179,-0.246L0.179,-0L0.069,-0L0.069,-0.476Z" style="fill:white;fill-rule:nonzero;stroke:white;stroke-width:0.03px;stroke-linecap:butt;stroke-miterlimit:2;"/>
                        </g>
                        <g transform="matrix(30.292481,-37.23393,37.23393,30.292481,1823.349873,802.194597)">
                            <path d="M0.647,-0.713L0.647,-0.579C0.582,-0.634 0.514,-0.661 0.443,-0.661C0.366,-0.661 0.301,-0.633 0.248,-0.578C0.194,-0.522 0.167,-0.455 0.167,-0.375C0.167,-0.295 0.194,-0.229 0.248,-0.174C0.301,-0.12 0.366,-0.093 0.444,-0.093C0.484,-0.093 0.518,-0.099 0.546,-0.112C0.562,-0.119 0.578,-0.128 0.594,-0.139C0.611,-0.15 0.629,-0.163 0.647,-0.179L0.647,-0.042C0.582,-0.005 0.514,0.014 0.442,0.014C0.335,0.014 0.243,-0.024 0.167,-0.099C0.091,-0.175 0.053,-0.266 0.053,-0.374C0.053,-0.47 0.084,-0.555 0.148,-0.63C0.226,-0.722 0.327,-0.769 0.451,-0.769C0.519,-0.769 0.584,-0.75 0.647,-0.713Z" style="fill:white;fill-rule:nonzero;stroke:white;stroke-width:0.03px;stroke-linecap:butt;stroke-miterlimit:2;"/>
                        </g>
                        <g transform="matrix(26.110838,-40.276844,40.276844,26.110838,1845.256951,774.950646)">
                            <path d="M0.047,-0.241C0.047,-0.31 0.071,-0.368 0.121,-0.417C0.17,-0.465 0.23,-0.489 0.3,-0.489C0.371,-0.489 0.431,-0.465 0.481,-0.416C0.53,-0.368 0.554,-0.308 0.554,-0.237C0.554,-0.166 0.53,-0.106 0.48,-0.058C0.431,-0.01 0.37,0.014 0.298,0.014C0.227,0.014 0.167,-0.011 0.119,-0.06C0.071,-0.108 0.047,-0.168 0.047,-0.241ZM0.159,-0.239C0.159,-0.192 0.172,-0.154 0.197,-0.126C0.223,-0.098 0.258,-0.084 0.3,-0.084C0.343,-0.084 0.378,-0.098 0.403,-0.126C0.429,-0.154 0.442,-0.191 0.442,-0.237C0.442,-0.283 0.429,-0.32 0.403,-0.348C0.377,-0.376 0.343,-0.39 0.3,-0.39C0.258,-0.39 0.224,-0.376 0.198,-0.348C0.172,-0.32 0.159,-0.284 0.159,-0.239Z" style="fill:white;fill-rule:nonzero;stroke:white;stroke-width:0.03px;stroke-linecap:butt;stroke-miterlimit:2;"/>
                        </g>
                        <g transform="matrix(21.27326,-43.02846,43.02846,21.27326,1861.92508,749.56784)">
                            <path d="M0.069,-0.476L0.179,-0.476L0.179,-0.432C0.2,-0.454 0.218,-0.469 0.233,-0.477C0.249,-0.485 0.269,-0.489 0.293,-0.489C0.347,-0.489 0.39,-0.465 0.421,-0.418C0.455,-0.465 0.502,-0.489 0.561,-0.489C0.668,-0.489 0.722,-0.424 0.722,-0.294L0.722,-0L0.611,-0L0.611,-0.264C0.611,-0.31 0.606,-0.342 0.595,-0.361C0.583,-0.38 0.565,-0.39 0.539,-0.39C0.508,-0.39 0.486,-0.378 0.472,-0.355C0.459,-0.333 0.452,-0.296 0.452,-0.246L0.452,-0L0.341,-0L0.341,-0.263C0.341,-0.347 0.317,-0.39 0.268,-0.39C0.237,-0.39 0.215,-0.378 0.2,-0.355C0.186,-0.332 0.179,-0.295 0.179,-0.246L0.179,-0L0.069,-0L0.069,-0.476Z" style="fill:white;fill-rule:nonzero;stroke:white;stroke-width:0.03px;stroke-linecap:butt;stroke-miterlimit:2;"/>
                        </g>
                        <g transform="matrix(15.95829,-45.269559,45.269559,15.95829,1879.342072,713.510436)">
                            <path d="M0.179,0.259L0.069,0.259L0.069,-0.476L0.179,-0.476L0.179,-0.424C0.222,-0.467 0.272,-0.489 0.327,-0.489C0.392,-0.489 0.446,-0.465 0.488,-0.417C0.531,-0.369 0.553,-0.308 0.553,-0.235C0.553,-0.164 0.531,-0.105 0.489,-0.057C0.446,-0.01 0.393,0.014 0.329,0.014C0.273,0.014 0.223,-0.009 0.179,-0.053L0.179,0.259ZM0.44,-0.235C0.44,-0.28 0.428,-0.318 0.403,-0.346C0.378,-0.375 0.347,-0.39 0.309,-0.39C0.268,-0.39 0.236,-0.376 0.21,-0.348C0.185,-0.32 0.173,-0.283 0.173,-0.237C0.173,-0.193 0.185,-0.156 0.21,-0.127C0.235,-0.099 0.268,-0.084 0.308,-0.084C0.346,-0.084 0.378,-0.099 0.402,-0.127C0.428,-0.156 0.44,-0.192 0.44,-0.235Z" style="fill:white;fill-rule:nonzero;stroke:white;stroke-width:0.03px;stroke-linecap:butt;stroke-miterlimit:2;"/>
                        </g>
                        <g transform="matrix(11.626904,-46.570539,46.570539,11.626904,1889.227381,685.185812)">
                            <path d="M0.179,-0.476L0.179,-0.203C0.179,-0.124 0.21,-0.084 0.272,-0.084C0.335,-0.084 0.366,-0.124 0.366,-0.203L0.366,-0.476L0.476,-0.476L0.476,-0.2C0.476,-0.162 0.471,-0.129 0.461,-0.102C0.452,-0.077 0.437,-0.055 0.414,-0.035C0.377,-0.002 0.33,0.014 0.272,0.014C0.215,0.014 0.168,-0.002 0.131,-0.035C0.109,-0.055 0.092,-0.077 0.083,-0.102C0.074,-0.124 0.069,-0.157 0.069,-0.2L0.069,-0.476L0.179,-0.476Z" style="fill:white;fill-rule:nonzero;stroke:white;stroke-width:0.03px;stroke-linecap:butt;stroke-miterlimit:2;"/>
                        </g>
                        <g transform="matrix(8.338402,-47.270192,47.270192,8.338402,1895.52655,658.965027)">
                            <path d="M0.183,-0.373L0.183,-0L0.073,-0L0.073,-0.373L0.026,-0.373L0.026,-0.476L0.073,-0.476L0.073,-0.65L0.183,-0.65L0.183,-0.476L0.268,-0.476L0.268,-0.373L0.183,-0.373Z" style="fill:white;fill-rule:nonzero;stroke:white;stroke-width:0.03px;stroke-linecap:butt;stroke-miterlimit:2;"/>
                        </g>
                        <g transform="matrix(6.351063,-47.577978,47.577978,6.351063,1897.885752,645.513011)">
                            <path d="M0.179,-0.476L0.179,-0L0.069,-0L0.069,-0.476L0.179,-0.476ZM0.053,-0.673C0.053,-0.693 0.06,-0.709 0.074,-0.723C0.088,-0.737 0.104,-0.744 0.124,-0.744C0.144,-0.744 0.161,-0.737 0.175,-0.723C0.189,-0.709 0.196,-0.693 0.196,-0.673C0.196,-0.653 0.189,-0.636 0.175,-0.622C0.161,-0.608 0.144,-0.601 0.125,-0.601C0.105,-0.601 0.088,-0.608 0.074,-0.622C0.06,-0.636 0.053,-0.653 0.053,-0.673Z" style="fill:white;fill-rule:nonzero;stroke:white;stroke-width:0.03px;stroke-linecap:butt;stroke-miterlimit:2;"/>
                        </g>
                        <g transform="matrix(3.192028,-47.893747,47.893747,3.192028,1899.78271,632.885439)">
                            <path d="M0.069,-0.476L0.18,-0.476L0.18,-0.432C0.218,-0.47 0.261,-0.489 0.31,-0.489C0.365,-0.489 0.408,-0.471 0.439,-0.437C0.466,-0.407 0.479,-0.359 0.479,-0.292L0.479,-0L0.369,-0L0.369,-0.266C0.369,-0.312 0.362,-0.345 0.349,-0.363C0.336,-0.381 0.313,-0.39 0.28,-0.39C0.243,-0.39 0.217,-0.378 0.202,-0.354C0.187,-0.33 0.18,-0.289 0.18,-0.229L0.18,-0L0.069,-0L0.069,-0.476Z" style="fill:white;fill-rule:nonzero;stroke:white;stroke-width:0.03px;stroke-linecap:butt;stroke-miterlimit:2;"/>
                        </g>
                        <g transform="matrix(-1.236467,-47.984072,47.984072,-1.236467,1901.585579,605.448518)">
                            <path d="M0.529,-0.011C0.529,0.011 0.529,0.031 0.527,0.048C0.526,0.065 0.524,0.08 0.521,0.093C0.513,0.129 0.498,0.16 0.475,0.186C0.432,0.235 0.373,0.26 0.298,0.26C0.234,0.26 0.182,0.243 0.141,0.208C0.099,0.173 0.074,0.125 0.068,0.062L0.178,0.062C0.182,0.086 0.189,0.104 0.199,0.117C0.222,0.146 0.255,0.161 0.299,0.161C0.379,0.161 0.419,0.112 0.419,0.013L0.419,-0.053C0.376,-0.009 0.326,0.014 0.269,0.014C0.204,0.014 0.151,-0.01 0.109,-0.057C0.068,-0.104 0.047,-0.164 0.047,-0.235C0.047,-0.304 0.066,-0.363 0.105,-0.412C0.147,-0.463 0.202,-0.489 0.27,-0.489C0.33,-0.489 0.38,-0.466 0.419,-0.422L0.419,-0.476L0.529,-0.476L0.529,-0.011ZM0.424,-0.237C0.424,-0.283 0.411,-0.32 0.387,-0.348C0.362,-0.376 0.33,-0.39 0.291,-0.39C0.249,-0.39 0.216,-0.375 0.192,-0.344C0.17,-0.316 0.159,-0.28 0.159,-0.236C0.159,-0.193 0.17,-0.158 0.192,-0.13C0.216,-0.1 0.249,-0.084 0.291,-0.084C0.333,-0.084 0.366,-0.1 0.39,-0.13C0.413,-0.158 0.424,-0.194 0.424,-0.237Z" style="fill:white;fill-rule:nonzero;stroke:white;stroke-width:0.03px;stroke-linecap:butt;stroke-miterlimit:2;"/>
                        </g>
                    </g>
                    <g transform="matrix(0.953125,0,0,0.953125,162.3125,1471.289477)">
                        <circle cx="1500" cy="374" r="256" style="fill:none;stroke:white;stroke-width:5.25px;"/>
                    </g>
                    <g id="path13" transform="matrix(2.25547,0,0,2.041618,2794.601917,11285.703822)">
                        <path d="M-562.331,-4590.43C-566.092,-4593.163 -571.341,-4591.613 -573.924,-4589.576C-576.563,-4587.495 -580.132,-4582.199 -581.922,-4578.479C-583.863,-4574.443 -583.014,-4568.567 -579.196,-4565.792C-575.289,-4562.952 -569.217,-4563.556 -566.602,-4566.35C-563.844,-4569.298 -560.948,-4572.726 -559.137,-4577.744C-557.64,-4581.896 -557.973,-4587.264 -562.331,-4590.43ZM-565.239,-4585.408C-562.516,-4582.65 -563.976,-4579.508 -565.049,-4577.353C-566.209,-4575.024 -568.097,-4572.886 -569.538,-4571.437C-571.076,-4569.892 -573.648,-4568.451 -575.96,-4570.316C-578.399,-4572.284 -577.441,-4575.149 -576.57,-4577.518C-576.047,-4578.942 -573.922,-4582.21 -572.595,-4583.741C-570.925,-4585.668 -567.769,-4587.972 -565.239,-4585.408Z" style="fill:white;"/>
                    </g>
                </g>
            </g>
            <g transform="matrix(1,0,0,1,309,-445)">
                <g transform="matrix(0.999997,0.002297,-0.002297,0.999997,-121.800674,-607.657926)">
                    <g transform="matrix(1.037677,0,0,1.037677,-54.88697,1401.329656)">
                        <circle cx="1589.5" cy="409.5" r="318.5" style="fill:none;stroke:white;stroke-width:7.23px;"/>
                    </g>
                    <g transform="matrix(0.999999,0.001232,-0.001232,0.999999,960.650925,1427.67058)">
                        <g transform="matrix(25.512535,-48.724845,48.724845,25.512535,380.774957,306.29773)">
                            <path d="M0.134,-0.816L0.864,-0.816L0.864,-0.561L0.134,-0.561L0.134,-0.816ZM0.746,-0.713L0.746,-0.745L0.254,-0.745L0.254,-0.713L0.746,-0.713ZM0.254,-0.657L0.254,-0.624L0.746,-0.624L0.746,-0.657L0.254,-0.657ZM0.048,-0.525L0.95,-0.525L0.95,-0.454L0.048,-0.454L0.048,-0.525ZM0.557,-0.052L0.557,-0.013L0.951,-0.013L0.951,0.061L0.046,0.061L0.046,-0.013L0.443,-0.013L0.443,-0.052L0.114,-0.052L0.114,-0.118L0.443,-0.118L0.443,-0.154L0.134,-0.154L0.134,-0.421L0.864,-0.421L0.864,-0.154L0.557,-0.154L0.557,-0.118L0.884,-0.118L0.884,-0.052L0.557,-0.052ZM0.443,-0.318L0.443,-0.355L0.253,-0.355L0.253,-0.318L0.443,-0.318ZM0.557,-0.318L0.746,-0.318L0.746,-0.355L0.557,-0.355L0.557,-0.318ZM0.253,-0.257L0.253,-0.22L0.443,-0.22L0.443,-0.257L0.253,-0.257ZM0.557,-0.257L0.557,-0.22L0.746,-0.22L0.746,-0.257L0.557,-0.257Z" style="fill:white;fill-rule:nonzero;"/>
                        </g>
                        <g transform="matrix(33.631455,-43.519252,43.519252,33.631455,406.28204,257.327896)">
                            <path d="M0.941,-0.437L0.941,-0.317L0.57,-0.317L0.57,-0.067C0.57,-0.029 0.565,0 0.556,0.021C0.547,0.041 0.531,0.055 0.508,0.064C0.484,0.072 0.451,0.076 0.408,0.076C0.381,0.076 0.34,0.074 0.287,0.07L0.261,-0.051C0.303,-0.044 0.345,-0.04 0.386,-0.039C0.403,-0.039 0.416,-0.041 0.424,-0.044C0.432,-0.048 0.437,-0.055 0.44,-0.065C0.443,-0.075 0.444,-0.09 0.444,-0.111L0.444,-0.317L0.06,-0.317L0.06,-0.437L0.444,-0.437L0.444,-0.523L0.688,-0.675L0.135,-0.675L0.135,-0.795L0.9,-0.795L0.9,-0.674L0.57,-0.47L0.57,-0.437L0.941,-0.437Z" style="fill:white;fill-rule:nonzero;"/>
                        </g>
                        <g transform="matrix(41.767751,-35.783446,35.783446,41.767751,439.956138,213.631444)">
                            <path d="M0.391,-0.278L0.312,-0.35L0.312,0.082L0.193,0.082L0.193,-0.321C0.157,-0.248 0.12,-0.186 0.083,-0.137L0.026,-0.257C0.054,-0.295 0.082,-0.34 0.111,-0.393C0.139,-0.445 0.164,-0.498 0.186,-0.552L0.063,-0.552L0.063,-0.67L0.193,-0.67L0.193,-0.838L0.312,-0.838L0.312,-0.67L0.429,-0.67L0.429,-0.552L0.312,-0.552L0.312,-0.5C0.364,-0.457 0.415,-0.413 0.464,-0.368L0.391,-0.278ZM0.958,-0.664L0.958,-0.544L0.851,-0.544L0.851,-0.067C0.851,-0.032 0.847,-0.005 0.839,0.015C0.83,0.034 0.816,0.048 0.796,0.058C0.777,0.067 0.749,0.071 0.714,0.072C0.663,0.072 0.62,0.07 0.585,0.066L0.562,-0.051C0.609,-0.044 0.648,-0.04 0.678,-0.04C0.693,-0.04 0.704,-0.042 0.711,-0.045C0.718,-0.048 0.723,-0.055 0.726,-0.065C0.729,-0.074 0.73,-0.089 0.73,-0.108L0.73,-0.4C0.691,-0.333 0.645,-0.27 0.594,-0.21C0.542,-0.15 0.486,-0.096 0.426,-0.047L0.34,-0.136C0.488,-0.253 0.602,-0.389 0.683,-0.544L0.48,-0.544L0.48,-0.664L0.73,-0.664L0.73,-0.837L0.851,-0.837L0.851,-0.664L0.958,-0.664Z" style="fill:white;fill-rule:nonzero;"/>
                        </g>
                        <g transform="matrix(48.745176,-25.473668,25.473668,48.745176,481.923511,177.795583)">
                            <path d="M0.961,-0.181L0.842,-0.166L0.842,0.084L0.729,0.084L0.729,-0.152L0.476,-0.121L0.469,-0.24L0.729,-0.273L0.729,-0.621L0.655,-0.534C0.634,-0.556 0.606,-0.582 0.573,-0.613C0.539,-0.643 0.512,-0.666 0.492,-0.681L0.563,-0.764C0.586,-0.747 0.613,-0.724 0.645,-0.698C0.677,-0.67 0.705,-0.646 0.729,-0.623L0.729,-0.832L0.842,-0.832L0.842,-0.287L0.954,-0.301L0.961,-0.181ZM0.309,-0.345C0.371,-0.291 0.421,-0.244 0.46,-0.203L0.382,-0.119C0.369,-0.135 0.344,-0.161 0.309,-0.198L0.309,0.084L0.196,0.084L0.196,-0.232C0.168,-0.167 0.131,-0.103 0.085,-0.04L0.018,-0.143C0.047,-0.179 0.075,-0.218 0.1,-0.259C0.125,-0.3 0.147,-0.341 0.164,-0.382L0.045,-0.382L0.045,-0.495L0.196,-0.495L0.196,-0.825L0.309,-0.825L0.309,-0.495L0.443,-0.495L0.443,-0.382L0.309,-0.382L0.309,-0.345ZM0.473,-0.73C0.464,-0.703 0.451,-0.668 0.434,-0.627C0.417,-0.586 0.402,-0.553 0.39,-0.528L0.31,-0.562C0.323,-0.589 0.336,-0.621 0.351,-0.659C0.366,-0.697 0.378,-0.73 0.387,-0.759L0.473,-0.73ZM0.107,-0.53C0.098,-0.557 0.087,-0.592 0.072,-0.634C0.057,-0.675 0.045,-0.707 0.036,-0.728L0.119,-0.758C0.129,-0.736 0.141,-0.705 0.156,-0.663C0.171,-0.622 0.182,-0.588 0.191,-0.559L0.107,-0.53ZM0.632,-0.301C0.611,-0.321 0.584,-0.346 0.549,-0.375C0.515,-0.404 0.487,-0.427 0.464,-0.444L0.532,-0.527C0.553,-0.512 0.581,-0.49 0.614,-0.463C0.647,-0.435 0.676,-0.409 0.702,-0.385L0.632,-0.301Z" style="fill:white;fill-rule:nonzero;"/>
                        </g>
                        <g transform="matrix(53.163012,-14.09589,14.09589,53.163012,530.957532,152.459764)">
                            <path d="M0.93,-0.6L0.312,-0.6L0.304,-0.49L0.888,-0.49C0.884,-0.326 0.876,-0.197 0.864,-0.104C0.857,-0.054 0.848,-0.017 0.837,0.008C0.826,0.033 0.808,0.05 0.784,0.06C0.761,0.07 0.726,0.075 0.679,0.075L0.649,0.075C0.594,0.075 0.542,0.073 0.493,0.068L0.47,-0.051C0.524,-0.044 0.581,-0.041 0.641,-0.041C0.666,-0.041 0.684,-0.043 0.696,-0.048C0.707,-0.052 0.716,-0.06 0.722,-0.073C0.727,-0.086 0.732,-0.106 0.736,-0.134C0.746,-0.207 0.752,-0.285 0.754,-0.366L0.161,-0.366L0.196,-0.829L0.329,-0.829L0.321,-0.72L0.93,-0.72L0.93,-0.6ZM0.043,-0.274L0.688,-0.274L0.688,-0.154L0.043,-0.154L0.043,-0.274Z" style="fill:white;fill-rule:nonzero;"/>
                        </g>
                        <g transform="matrix(54.891156,-3.45847,3.45847,54.891156,584.40107,138.577442)">
                            <path d="M0.134,-0.816L0.864,-0.816L0.864,-0.561L0.134,-0.561L0.134,-0.816ZM0.746,-0.713L0.746,-0.745L0.254,-0.745L0.254,-0.713L0.746,-0.713ZM0.254,-0.657L0.254,-0.624L0.746,-0.624L0.746,-0.657L0.254,-0.657ZM0.048,-0.525L0.95,-0.525L0.95,-0.454L0.048,-0.454L0.048,-0.525ZM0.557,-0.052L0.557,-0.013L0.951,-0.013L0.951,0.061L0.046,0.061L0.046,-0.013L0.443,-0.013L0.443,-0.052L0.114,-0.052L0.114,-0.118L0.443,-0.118L0.443,-0.154L0.134,-0.154L0.134,-0.421L0.864,-0.421L0.864,-0.154L0.557,-0.154L0.557,-0.118L0.884,-0.118L0.884,-0.052L0.557,-0.052ZM0.443,-0.318L0.443,-0.355L0.253,-0.355L0.253,-0.318L0.443,-0.318ZM0.557,-0.318L0.746,-0.318L0.746,-0.355L0.557,-0.355L0.557,-0.318ZM0.253,-0.257L0.253,-0.22L0.443,-0.22L0.443,-0.257L0.253,-0.257ZM0.557,-0.257L0.557,-0.22L0.746,-0.22L0.746,-0.257L0.557,-0.257Z" style="fill:white;fill-rule:nonzero;"/>
                        </g>
                        <g transform="matrix(54.670614,6.010318,-6.010318,54.670614,639.404453,135.040258)">
                            <path d="M0.941,-0.437L0.941,-0.317L0.57,-0.317L0.57,-0.067C0.57,-0.029 0.565,0 0.556,0.021C0.547,0.041 0.531,0.055 0.508,0.064C0.484,0.072 0.451,0.076 0.408,0.076C0.381,0.076 0.34,0.074 0.287,0.07L0.261,-0.051C0.303,-0.044 0.345,-0.04 0.386,-0.039C0.403,-0.039 0.416,-0.041 0.424,-0.044C0.432,-0.048 0.437,-0.055 0.44,-0.065C0.443,-0.075 0.444,-0.09 0.444,-0.111L0.444,-0.317L0.06,-0.317L0.06,-0.437L0.444,-0.437L0.444,-0.523L0.688,-0.675L0.135,-0.675L0.135,-0.795L0.9,-0.795L0.9,-0.674L0.57,-0.47L0.57,-0.437L0.941,-0.437Z" style="fill:white;fill-rule:nonzero;"/>
                        </g>
                        <g transform="matrix(52.303451,17.010263,-17.010263,52.303451,694.242828,140.952073)">
                            <path d="M0.258,-0.582C0.236,-0.61 0.211,-0.642 0.182,-0.677C0.153,-0.712 0.127,-0.745 0.102,-0.774L0.198,-0.85C0.223,-0.822 0.251,-0.789 0.283,-0.752C0.315,-0.715 0.34,-0.685 0.358,-0.662L0.258,-0.582ZM0.722,-0.533L0.953,-0.533L0.953,-0.409L0.722,-0.409L0.722,0.084L0.595,0.084L0.595,-0.409L0.36,-0.409L0.36,-0.533L0.595,-0.533L0.595,-0.836L0.722,-0.836L0.722,-0.533ZM0.281,-0.14C0.313,-0.165 0.361,-0.201 0.425,-0.249L0.468,-0.13C0.386,-0.071 0.316,-0.02 0.258,0.025C0.237,0.042 0.221,0.055 0.21,0.066L0.134,-0.025C0.143,-0.034 0.149,-0.043 0.152,-0.052C0.155,-0.061 0.157,-0.073 0.157,-0.089L0.157,-0.413L0.036,-0.413L0.036,-0.535L0.281,-0.535L0.281,-0.14Z" style="fill:white;fill-rule:nonzero;"/>
                        </g>
                        <g transform="matrix(47.02206,28.529387,-28.529387,47.02206,746.791709,158.108396)">
                            <path d="M0.951,-0.157L0.951,-0.068L0.74,-0.068L0.74,0.079L0.629,0.079L0.629,-0.068L0.371,-0.068C0.356,-0.033 0.331,-0.003 0.296,0.023C0.261,0.049 0.216,0.072 0.163,0.093L0.102,0.002C0.169,-0.024 0.214,-0.047 0.237,-0.068L0.047,-0.068L0.047,-0.157L0.271,-0.157L0.273,-0.207L0.148,-0.207L0.148,-0.593L0.124,-0.57L0.033,-0.631C0.067,-0.66 0.101,-0.697 0.136,-0.741C0.17,-0.785 0.196,-0.824 0.214,-0.858L0.329,-0.839C0.322,-0.823 0.312,-0.805 0.3,-0.785L0.488,-0.785L0.488,-0.69C0.524,-0.737 0.558,-0.792 0.589,-0.854L0.701,-0.836L0.674,-0.785L0.944,-0.785L0.944,-0.688L0.78,-0.688C0.794,-0.667 0.802,-0.656 0.803,-0.653L0.721,-0.611C0.706,-0.636 0.689,-0.662 0.67,-0.688L0.614,-0.688C0.603,-0.671 0.584,-0.646 0.559,-0.613L0.459,-0.653L0.487,-0.688L0.373,-0.688C0.386,-0.668 0.393,-0.655 0.396,-0.649L0.311,-0.612C0.307,-0.62 0.3,-0.633 0.289,-0.65L0.267,-0.688L0.233,-0.688C0.211,-0.661 0.188,-0.635 0.165,-0.611L0.853,-0.611L0.853,-0.207L0.74,-0.207L0.74,-0.157L0.951,-0.157ZM0.74,-0.494L0.74,-0.533L0.261,-0.533L0.261,-0.494L0.74,-0.494ZM0.261,-0.388L0.74,-0.388L0.74,-0.428L0.261,-0.428L0.261,-0.388ZM0.74,-0.324L0.261,-0.324L0.261,-0.287L0.74,-0.287L0.74,-0.324ZM0.629,-0.157L0.629,-0.207L0.387,-0.207C0.387,-0.184 0.387,-0.167 0.386,-0.157L0.629,-0.157Z" style="fill:white;fill-rule:nonzero;"/>
                        </g>
                        <g transform="matrix(39.304328,38.472975,-38.472975,39.304328,793.931784,186.902794)">
                            <path d="M0.194,-0.641L0.194,-0.534L0.076,-0.534L0.076,-0.751L0.441,-0.751L0.429,-0.78L0.409,-0.83L0.551,-0.854C0.558,-0.838 0.567,-0.814 0.579,-0.781L0.59,-0.751L0.926,-0.751L0.926,-0.532L0.805,-0.532L0.805,-0.641L0.194,-0.641ZM0.459,-0.412C0.435,-0.428 0.401,-0.448 0.356,-0.473C0.312,-0.497 0.273,-0.518 0.24,-0.535L0.292,-0.63C0.4,-0.573 0.473,-0.533 0.511,-0.51L0.459,-0.412ZM0.886,0.088C0.777,0.037 0.661,-0.015 0.539,-0.068C0.498,-0.032 0.443,-0.001 0.376,0.025C0.308,0.05 0.221,0.074 0.114,0.097L0.072,-0.021C0.181,-0.042 0.267,-0.064 0.33,-0.087C0.392,-0.11 0.439,-0.137 0.47,-0.17L0.059,-0.17L0.059,-0.281L0.36,-0.281C0.281,-0.326 0.214,-0.363 0.157,-0.392L0.207,-0.486C0.306,-0.434 0.382,-0.392 0.437,-0.359L0.388,-0.281L0.528,-0.281C0.537,-0.318 0.542,-0.366 0.543,-0.426L0.548,-0.602L0.671,-0.602L0.666,-0.41C0.665,-0.361 0.66,-0.318 0.653,-0.281L0.94,-0.281L0.94,-0.17L0.617,-0.17C0.617,-0.169 0.615,-0.165 0.612,-0.159L0.942,-0.023L0.886,0.088Z" style="fill:white;fill-rule:nonzero;"/>
                        </g>
                        <g transform="matrix(30.872618,45.517925,-45.517925,30.872618,833.275337,225.61743)">
                            <path d="M0.351,-0.532C0.414,-0.576 0.467,-0.623 0.51,-0.674C0.553,-0.725 0.589,-0.782 0.618,-0.845L0.706,-0.845C0.735,-0.78 0.773,-0.721 0.82,-0.666C0.866,-0.612 0.919,-0.564 0.978,-0.523L0.918,-0.418C0.892,-0.438 0.868,-0.458 0.845,-0.479L0.845,-0.428L0.477,-0.428L0.477,-0.479C0.452,-0.456 0.432,-0.44 0.419,-0.43L0.351,-0.532ZM0.341,-0.422L0.393,-0.422C0.394,-0.376 0.392,-0.318 0.389,-0.248C0.386,-0.178 0.381,-0.115 0.375,-0.06C0.371,-0.024 0.364,0.003 0.354,0.02C0.345,0.037 0.33,0.049 0.309,0.056C0.289,0.063 0.259,0.066 0.218,0.066C0.193,0.066 0.165,0.064 0.135,0.061L0.115,-0.039C0.15,-0.034 0.181,-0.032 0.208,-0.032C0.225,-0.032 0.238,-0.034 0.246,-0.037C0.255,-0.041 0.261,-0.047 0.265,-0.056C0.269,-0.065 0.272,-0.078 0.275,-0.096C0.278,-0.121 0.281,-0.156 0.284,-0.2C0.287,-0.243 0.288,-0.284 0.288,-0.321L0.07,-0.321L0.094,-0.667L0.196,-0.667L0.18,-0.422L0.237,-0.422L0.257,-0.702L0.059,-0.702L0.059,-0.808L0.366,-0.808L0.341,-0.422ZM0.663,-0.707C0.628,-0.645 0.586,-0.588 0.535,-0.535L0.789,-0.535C0.736,-0.591 0.694,-0.648 0.663,-0.707ZM0.649,-0.122C0.642,-0.156 0.632,-0.197 0.619,-0.245C0.606,-0.294 0.594,-0.334 0.583,-0.367L0.678,-0.396C0.689,-0.36 0.702,-0.318 0.715,-0.27C0.728,-0.222 0.738,-0.182 0.745,-0.151L0.649,-0.122ZM0.918,-0.361C0.881,-0.238 0.848,-0.137 0.821,-0.059L0.946,-0.059L0.946,0.055L0.403,0.055L0.403,-0.059L0.717,-0.059C0.749,-0.148 0.782,-0.258 0.817,-0.391L0.918,-0.361ZM0.514,-0.382C0.551,-0.261 0.577,-0.174 0.59,-0.119L0.492,-0.088C0.482,-0.136 0.461,-0.213 0.43,-0.319L0.421,-0.351L0.514,-0.382ZM0.257,-0.158C0.247,-0.157 0.212,-0.15 0.152,-0.138C0.093,-0.125 0.056,-0.117 0.043,-0.113L0.034,-0.223C0.049,-0.224 0.082,-0.23 0.133,-0.239C0.184,-0.248 0.224,-0.256 0.251,-0.261L0.257,-0.158Z" style="fill:white;fill-rule:nonzero;"/>
                        </g>
                        <g transform="matrix(23.060197,49.932227,-49.932227,23.060197,864.08624,271.307485)">
                            <path d="M0.186,-0.653L0.186,-0.593L0.066,-0.593L0.066,-0.758L0.433,-0.758C0.422,-0.783 0.411,-0.806 0.402,-0.825L0.543,-0.857C0.556,-0.828 0.57,-0.795 0.583,-0.758L0.923,-0.758L0.923,-0.593L0.804,-0.593L0.804,-0.653L0.186,-0.653ZM0.556,-0.044L0.934,-0.044L0.934,0.059L0.053,0.059L0.053,-0.044L0.435,-0.044L0.435,-0.118L0.144,-0.118L0.144,-0.219L0.435,-0.219L0.435,-0.289C0.39,-0.287 0.327,-0.283 0.245,-0.278L0.146,-0.271L0.125,-0.365C0.148,-0.372 0.169,-0.381 0.186,-0.391C0.219,-0.411 0.257,-0.441 0.3,-0.48L0.149,-0.48L0.149,-0.575L0.84,-0.575L0.84,-0.48L0.711,-0.48C0.772,-0.425 0.827,-0.373 0.875,-0.323L0.794,-0.246C0.783,-0.257 0.763,-0.278 0.733,-0.308C0.654,-0.303 0.595,-0.299 0.556,-0.297L0.556,-0.219L0.844,-0.219L0.844,-0.118L0.556,-0.118L0.556,-0.044ZM0.464,-0.48C0.412,-0.429 0.368,-0.393 0.332,-0.371L0.646,-0.392L0.59,-0.442L0.632,-0.48L0.464,-0.48Z" style="fill:white;fill-rule:nonzero;"/>
                        </g>
                    </g>
                    <g transform="matrix(1.060399,0,-0,1.060399,-98.008384,-101.132468)">
                        <g id="path55" transform="matrix(8.930009,0,-0,-2.231249,485.624128,3009.5173)">
                            <path d="M110.55,462.136L141.216,461.911C141.216,461.911 141.745,462.771 141.744,465.737C141.742,468.279 141.215,469.559 141.215,469.559L112.021,469.982L110.55,462.136Z" style="fill:white;"/>
                        </g>
                        <g id="path3-6-3" transform="matrix(0.411696,0,0,0.411696,1019.966699,1489.816361)">
                            <path d="M1505.861,647.936C1505.861,647.936 1522.919,706.91 1467.65,716.626L1478.62,757.259C1478.62,757.259 1564.68,741.346 1549.38,659.927C1546.084,642.386 1533.05,591.041 1533.05,591.041C1533.05,591.041 1492.212,593.469 1494.717,599.202C1495.853,601.803 1494.089,605.312 1505.861,647.936Z" style="fill:white;"/>
                        </g>
                        <g id="path4-91-6" transform="matrix(0.404012,0,-0,0.404218,1025.761468,1513.35962)">
                            <path d="M1790.704,438.994L1301.17,1070.74L1787.062,1069.055C1787.062,1069.055 1796.275,1065.439 1796.216,1049.533C1796.165,1035.961 1786.692,1029.614 1786.692,1029.614L1387.77,1029.15L1790.219,508.301L1790.704,438.994Z" style="fill:white;"/>
                        </g>
                        <g id="path5-7-9" transform="matrix(0.411696,0,0,0.411696,1019.030159,1492.647643)">
                            <path d="M1400.9,728.438C1400.9,728.438 1326.16,753.448 1335.73,799.337L1349.72,862.462C1349.72,862.462 1363.14,938.101 1290.72,946.472L1298.287,982.868C1298.287,982.868 1404.96,976.328 1387.19,859.31C1386.02,851.592 1377.27,812.556 1376.02,806.634C1373.39,794.108 1375.28,776.108 1409.6,769.057L1400.9,728.438Z" style="fill:white;"/>
                        </g>
                        <g id="path55-0" transform="matrix(-8.76874,-0,0,2.231249,2693.415661,625.300069)">
                            <path d="M110.55,461.24L141.9,461.44C141.9,461.44 142.439,462.25 142.438,465.717C142.436,468.702 141.9,469.562 141.9,469.562L112.253,469.556L110.55,461.24Z" style="fill:rgb(255,166,0);stroke:rgb(255,166,0);stroke-width:0.15px;stroke-linecap:butt;stroke-miterlimit:2;"/>
                        </g>
                        <g id="path8-3-9" transform="matrix(0.411696,0,0,0.411696,1019.030155,1492.647654)">
                            <path d="M1487.31,613.162L1493.64,647.833C1493.64,647.833 1436.01,652.691 1450.49,706.402C1464.98,760.113 1467.09,769.166 1467.09,769.166C1467.09,769.166 1481.58,835.78 1401.91,862.334L1394.37,820.765C1394.37,820.765 1441.74,817.946 1423.34,760.717C1415.36,735.886 1413.68,726.921 1413.68,726.921C1413.68,726.921 1413.25,725.669 1412.64,723.424C1407.83,705.863 1396.34,627.877 1487.31,613.162Z" style="fill:rgb(255,166,0);stroke:rgb(255,166,0);stroke-width:2.29px;stroke-linecap:butt;stroke-miterlimit:2;"/>
                        </g>
                        <g id="path9-0-6" transform="matrix(0.405987,0,-0,0.404269,1025.820355,1502.722086)">
                            <path d="M1038.59,505.889L1431.16,506.493L1023.8,1030.93L1023.8,1099.13L1517.46,464.248L1038.59,463.343C1038.59,463.343 1029.268,469.514 1029.299,485.936C1029.329,501.925 1038.59,505.889 1038.59,505.889Z" style="fill:rgb(255,166,0);stroke:rgb(255,166,0);stroke-width:2.33px;stroke-linecap:butt;stroke-miterlimit:2;"/>
                        </g>
                        <g id="path11-6" transform="matrix(0.467262,0,0,0.467262,1393.223099,1592.7165)">
                            <path d="M374.759,554.76L371.054,519.543C371.054,519.543 340.64,527.77 325.439,533.628C311.667,538.936 301.5,549.787 297.964,558.667C284.318,592.941 299.151,621.25 302.805,651.86C302.981,653.332 317.471,651.006 331.384,652.16C332.433,652.247 325.052,619.545 325.052,619.545C325.052,619.545 314.609,588.537 328.263,571.638C340.18,556.89 374.759,554.76 374.759,554.76Z" style="fill:rgb(255,166,0);stroke:rgb(255,166,0);stroke-width:2.02px;stroke-linecap:butt;stroke-miterlimit:2;"/>
                        </g>
                        <g id="path10-2-6" transform="matrix(1.864074,-0.084794,0.079761,1.75344,2974.115866,9867.332551)">
                            <path d="M-501.726,-4662.358C-501.726,-4662.358 -489.26,-4676.295 -483.138,-4683.688C-480.939,-4686.344 -481.596,-4691.097 -484.251,-4691.028C-488.351,-4690.922 -496.79,-4689.73 -498.181,-4688.196C-499.474,-4686.771 -499.719,-4684.541 -499.371,-4683.701C-499.022,-4682.86 -493.588,-4682.498 -493.588,-4682.498L-507.056,-4667.052C-507.056,-4667.052 -507.742,-4665.113 -505.441,-4663.119C-503.443,-4661.388 -501.726,-4662.358 -501.726,-4662.358Z" style="fill:rgb(255,166,0);"/>
                        </g>
                    </g>
                </g>
            </g>
            <g transform="matrix(1.647716,0,0,1.647716,-818.23622,-1646.504391)">
                <g transform="matrix(96,0,0,96,1814,1437)">
                    <path d="M0.857,0.014L0.714,0.014L0.655,-0.047C0.592,-0.007 0.522,0.014 0.445,0.014C0.345,0.014 0.257,-0.02 0.179,-0.088C0.095,-0.162 0.053,-0.258 0.053,-0.374C0.053,-0.487 0.093,-0.582 0.172,-0.658C0.25,-0.731 0.341,-0.768 0.447,-0.768C0.542,-0.768 0.628,-0.736 0.704,-0.671C0.795,-0.594 0.841,-0.493 0.841,-0.368C0.841,-0.271 0.805,-0.184 0.733,-0.108L0.857,0.014ZM0.544,-0.298L0.654,-0.189C0.702,-0.24 0.726,-0.302 0.726,-0.375C0.726,-0.457 0.699,-0.524 0.646,-0.579C0.592,-0.634 0.525,-0.661 0.445,-0.661C0.365,-0.661 0.298,-0.634 0.246,-0.579C0.194,-0.525 0.167,-0.456 0.167,-0.373C0.167,-0.291 0.194,-0.225 0.249,-0.173C0.305,-0.119 0.369,-0.093 0.441,-0.093C0.491,-0.093 0.535,-0.104 0.575,-0.126L0.397,-0.298L0.544,-0.298Z" style="fill:white;fill-rule:nonzero;stroke:rgb(255,254,249);stroke-width:0.01px;stroke-linecap:butt;stroke-miterlimit:2;"/>
                </g>
                <g transform="matrix(96,0,0,96,1899.78125,1437)">
                    <path d="M0.179,-0.476L0.179,-0.203C0.179,-0.124 0.21,-0.084 0.272,-0.084C0.335,-0.084 0.366,-0.124 0.366,-0.203L0.366,-0.476L0.476,-0.476L0.476,-0.2C0.476,-0.162 0.471,-0.129 0.461,-0.102C0.452,-0.077 0.437,-0.055 0.414,-0.035C0.377,-0.002 0.33,0.014 0.272,0.014C0.215,0.014 0.168,-0.002 0.131,-0.035C0.109,-0.055 0.092,-0.077 0.083,-0.102C0.074,-0.124 0.069,-0.157 0.069,-0.2L0.069,-0.476L0.179,-0.476Z" style="fill:white;fill-rule:nonzero;stroke:rgb(255,254,249);stroke-width:0.01px;stroke-linecap:butt;stroke-miterlimit:2;"/>
                </g>
                <g transform="matrix(96,0,0,96,1952.09375,1437)">
                    <path d="M0.42,-0.476L0.53,-0.476L0.53,-0L0.42,-0L0.42,-0.05C0.375,-0.007 0.326,0.014 0.274,0.014C0.208,0.014 0.154,-0.01 0.111,-0.058C0.068,-0.106 0.047,-0.167 0.047,-0.239C0.047,-0.311 0.068,-0.37 0.111,-0.417C0.153,-0.465 0.207,-0.489 0.271,-0.489C0.326,-0.489 0.376,-0.466 0.42,-0.42L0.42,-0.476ZM0.159,-0.239C0.159,-0.194 0.171,-0.157 0.196,-0.128C0.221,-0.099 0.252,-0.084 0.291,-0.084C0.331,-0.084 0.364,-0.098 0.389,-0.126C0.414,-0.155 0.427,-0.192 0.427,-0.237C0.427,-0.281 0.414,-0.318 0.389,-0.347C0.364,-0.375 0.332,-0.39 0.292,-0.39C0.254,-0.39 0.222,-0.375 0.197,-0.347C0.172,-0.318 0.159,-0.282 0.159,-0.239Z" style="fill:white;fill-rule:nonzero;stroke:rgb(255,254,249);stroke-width:0.01px;stroke-linecap:butt;stroke-miterlimit:2;"/>
                </g>
                <g transform="matrix(96,0,0,96,2009.65625,1437)">
                    <path d="M0.069,-0.476L0.18,-0.476L0.18,-0.432C0.218,-0.47 0.261,-0.489 0.31,-0.489C0.365,-0.489 0.408,-0.471 0.439,-0.437C0.466,-0.407 0.479,-0.359 0.479,-0.292L0.479,-0L0.369,-0L0.369,-0.266C0.369,-0.312 0.362,-0.345 0.349,-0.363C0.336,-0.381 0.313,-0.39 0.28,-0.39C0.243,-0.39 0.217,-0.378 0.202,-0.354C0.187,-0.33 0.18,-0.289 0.18,-0.229L0.18,-0L0.069,-0L0.069,-0.476Z" style="fill:white;fill-rule:nonzero;stroke:rgb(255,254,249);stroke-width:0.01px;stroke-linecap:butt;stroke-miterlimit:2;"/>
                </g>
                <g transform="matrix(96,0,0,96,2062.296875,1437)">
                    <path d="M0.183,-0.373L0.183,-0L0.073,-0L0.073,-0.373L0.026,-0.373L0.026,-0.476L0.073,-0.476L0.073,-0.65L0.183,-0.65L0.183,-0.476L0.268,-0.476L0.268,-0.373L0.183,-0.373Z" style="fill:white;fill-rule:nonzero;stroke:rgb(255,254,249);stroke-width:0.01px;stroke-linecap:butt;stroke-miterlimit:2;"/>
                </g>
                <g transform="matrix(96,0,0,96,2088.546875,1437)">
                    <path d="M0.179,-0.476L0.179,-0.203C0.179,-0.124 0.21,-0.084 0.272,-0.084C0.335,-0.084 0.366,-0.124 0.366,-0.203L0.366,-0.476L0.476,-0.476L0.476,-0.2C0.476,-0.162 0.471,-0.129 0.461,-0.102C0.452,-0.077 0.437,-0.055 0.414,-0.035C0.377,-0.002 0.33,0.014 0.272,0.014C0.215,0.014 0.168,-0.002 0.131,-0.035C0.109,-0.055 0.092,-0.077 0.083,-0.102C0.074,-0.124 0.069,-0.157 0.069,-0.2L0.069,-0.476L0.179,-0.476Z" style="fill:white;fill-rule:nonzero;stroke:rgb(255,254,249);stroke-width:0.01px;stroke-linecap:butt;stroke-miterlimit:2;"/>
                </g>
                <g transform="matrix(96,0,0,96,2140.859375,1437)">
                    <path d="M0.069,-0.476L0.179,-0.476L0.179,-0.432C0.2,-0.454 0.218,-0.469 0.233,-0.477C0.249,-0.485 0.269,-0.489 0.293,-0.489C0.347,-0.489 0.39,-0.465 0.421,-0.418C0.455,-0.465 0.502,-0.489 0.561,-0.489C0.668,-0.489 0.722,-0.424 0.722,-0.294L0.722,-0L0.611,-0L0.611,-0.264C0.611,-0.31 0.606,-0.342 0.595,-0.361C0.583,-0.38 0.565,-0.39 0.539,-0.39C0.508,-0.39 0.486,-0.378 0.472,-0.355C0.459,-0.333 0.452,-0.296 0.452,-0.246L0.452,-0L0.341,-0L0.341,-0.263C0.341,-0.347 0.317,-0.39 0.268,-0.39C0.237,-0.39 0.215,-0.378 0.2,-0.355C0.186,-0.332 0.179,-0.295 0.179,-0.246L0.179,-0L0.069,-0L0.069,-0.476Z" style="fill:white;fill-rule:nonzero;stroke:rgb(255,254,249);stroke-width:0.01px;stroke-linecap:butt;stroke-miterlimit:2;"/>
                </g>
                <g transform="matrix(96,0,0,96,2246.421875,1437)">
                    <path d="M0.064,-0L0.223,-0.811L0.481,-0.225L0.75,-0.811L0.892,-0L0.775,-0L0.703,-0.455L0.479,0.035L0.263,-0.456L0.182,-0L0.064,-0Z" style="fill:white;fill-rule:nonzero;stroke:rgb(255,254,249);stroke-width:0.01px;stroke-linecap:butt;stroke-miterlimit:2;"/>
                </g>
                <g transform="matrix(96,0,0,96,2338.71875,1437)">
                    <path d="M0.42,-0.476L0.53,-0.476L0.53,-0L0.42,-0L0.42,-0.05C0.375,-0.007 0.326,0.014 0.274,0.014C0.208,0.014 0.154,-0.01 0.111,-0.058C0.068,-0.106 0.047,-0.167 0.047,-0.239C0.047,-0.311 0.068,-0.37 0.111,-0.417C0.153,-0.465 0.207,-0.489 0.271,-0.489C0.326,-0.489 0.376,-0.466 0.42,-0.42L0.42,-0.476ZM0.159,-0.239C0.159,-0.194 0.171,-0.157 0.196,-0.128C0.221,-0.099 0.252,-0.084 0.291,-0.084C0.331,-0.084 0.364,-0.098 0.389,-0.126C0.414,-0.155 0.427,-0.192 0.427,-0.237C0.427,-0.281 0.414,-0.318 0.389,-0.347C0.364,-0.375 0.332,-0.39 0.292,-0.39C0.254,-0.39 0.222,-0.375 0.197,-0.347C0.172,-0.318 0.159,-0.282 0.159,-0.239Z" style="fill:white;fill-rule:nonzero;stroke:rgb(255,254,249);stroke-width:0.01px;stroke-linecap:butt;stroke-miterlimit:2;"/>
                </g>
                <g transform="matrix(96,0,0,96,2396.28125,1437)">
                    <path d="M0.183,-0.373L0.183,-0L0.073,-0L0.073,-0.373L0.026,-0.373L0.026,-0.476L0.073,-0.476L0.073,-0.65L0.183,-0.65L0.183,-0.476L0.268,-0.476L0.268,-0.373L0.183,-0.373Z" style="fill:white;fill-rule:nonzero;stroke:rgb(255,254,249);stroke-width:0.01px;stroke-linecap:butt;stroke-miterlimit:2;"/>
                </g>
                <g transform="matrix(96,0,0,96,2423.375,1437)">
                    <path d="M0.502,-0.212L0.162,-0.212C0.165,-0.173 0.177,-0.142 0.2,-0.119C0.222,-0.096 0.251,-0.084 0.286,-0.084C0.313,-0.084 0.336,-0.091 0.354,-0.104C0.372,-0.117 0.392,-0.141 0.414,-0.176L0.507,-0.125C0.493,-0.1 0.477,-0.079 0.461,-0.062C0.445,-0.044 0.428,-0.03 0.41,-0.019C0.392,-0.008 0.372,0.001 0.351,0.006C0.33,0.011 0.307,0.014 0.282,0.014C0.211,0.014 0.154,-0.009 0.111,-0.055C0.068,-0.101 0.047,-0.161 0.047,-0.237C0.047,-0.312 0.068,-0.373 0.109,-0.42C0.151,-0.466 0.207,-0.489 0.276,-0.489C0.346,-0.489 0.402,-0.466 0.442,-0.422C0.483,-0.378 0.503,-0.316 0.503,-0.238L0.502,-0.212ZM0.39,-0.302C0.374,-0.36 0.337,-0.39 0.279,-0.39C0.265,-0.39 0.253,-0.388 0.241,-0.384C0.229,-0.379 0.219,-0.374 0.209,-0.366C0.2,-0.358 0.191,-0.349 0.185,-0.338C0.178,-0.328 0.173,-0.315 0.169,-0.302L0.39,-0.302Z" style="fill:white;fill-rule:nonzero;stroke:rgb(255,254,249);stroke-width:0.01px;stroke-linecap:butt;stroke-miterlimit:2;"/>
                </g>
                <g transform="matrix(96,0,0,96,2476.484375,1437)">
                    <path d="M0.069,-0.476L0.179,-0.476L0.179,-0.433C0.199,-0.454 0.217,-0.469 0.233,-0.477C0.249,-0.485 0.268,-0.489 0.29,-0.489C0.319,-0.489 0.349,-0.479 0.38,-0.46L0.33,-0.36C0.309,-0.375 0.289,-0.382 0.269,-0.382C0.209,-0.382 0.179,-0.337 0.179,-0.247L0.179,-0L0.069,-0L0.069,-0.476Z" style="fill:white;fill-rule:nonzero;stroke:rgb(255,254,249);stroke-width:0.01px;stroke-linecap:butt;stroke-miterlimit:2;"/>
                </g>
                <g transform="matrix(96,0,0,96,2513.84375,1437)">
                    <path d="M0.179,-0.476L0.179,-0L0.069,-0L0.069,-0.476L0.179,-0.476ZM0.053,-0.673C0.053,-0.693 0.06,-0.709 0.074,-0.723C0.088,-0.737 0.104,-0.744 0.124,-0.744C0.144,-0.744 0.161,-0.737 0.175,-0.723C0.189,-0.709 0.196,-0.693 0.196,-0.673C0.196,-0.653 0.189,-0.636 0.175,-0.622C0.161,-0.608 0.144,-0.601 0.125,-0.601C0.105,-0.601 0.088,-0.608 0.074,-0.622C0.06,-0.636 0.053,-0.653 0.053,-0.673Z" style="fill:white;fill-rule:nonzero;stroke:rgb(255,254,249);stroke-width:0.01px;stroke-linecap:butt;stroke-miterlimit:2;"/>
                </g>
                <g transform="matrix(96,0,0,96,2537.75,1437)">
                    <path d="M0.42,-0.476L0.53,-0.476L0.53,-0L0.42,-0L0.42,-0.05C0.375,-0.007 0.326,0.014 0.274,0.014C0.208,0.014 0.154,-0.01 0.111,-0.058C0.068,-0.106 0.047,-0.167 0.047,-0.239C0.047,-0.311 0.068,-0.37 0.111,-0.417C0.153,-0.465 0.207,-0.489 0.271,-0.489C0.326,-0.489 0.376,-0.466 0.42,-0.42L0.42,-0.476ZM0.159,-0.239C0.159,-0.194 0.171,-0.157 0.196,-0.128C0.221,-0.099 0.252,-0.084 0.291,-0.084C0.331,-0.084 0.364,-0.098 0.389,-0.126C0.414,-0.155 0.427,-0.192 0.427,-0.237C0.427,-0.281 0.414,-0.318 0.389,-0.347C0.364,-0.375 0.332,-0.39 0.292,-0.39C0.254,-0.39 0.222,-0.375 0.197,-0.347C0.172,-0.318 0.159,-0.282 0.159,-0.239Z" style="fill:white;fill-rule:nonzero;stroke:rgb(255,254,249);stroke-width:0.01px;stroke-linecap:butt;stroke-miterlimit:2;"/>
                </g>
                <g transform="matrix(96,0,0,96,2595.3125,1437)">
                    <rect x="0.069" y="-0.825" width="0.11" height="0.825" style="fill:white;fill-rule:nonzero;stroke:rgb(255,254,249);stroke-width:0.01px;stroke-linecap:butt;stroke-miterlimit:2;"/>
                </g>
                <g transform="matrix(96,0,0,96,2619.21875,1437)">
                    <path d="M0.346,-0.395L0.255,-0.346C0.241,-0.375 0.223,-0.39 0.202,-0.39C0.192,-0.39 0.183,-0.387 0.176,-0.38C0.169,-0.373 0.165,-0.365 0.165,-0.354C0.165,-0.336 0.186,-0.318 0.229,-0.3C0.287,-0.275 0.326,-0.252 0.346,-0.231C0.366,-0.21 0.376,-0.181 0.376,-0.146C0.376,-0.1 0.36,-0.061 0.326,-0.03C0.293,-0.001 0.253,0.014 0.207,0.014C0.127,0.014 0.07,-0.025 0.037,-0.103L0.131,-0.146C0.144,-0.124 0.154,-0.109 0.161,-0.103C0.174,-0.091 0.19,-0.084 0.208,-0.084C0.246,-0.084 0.264,-0.101 0.264,-0.135C0.264,-0.155 0.25,-0.173 0.221,-0.19C0.21,-0.195 0.199,-0.201 0.188,-0.206C0.177,-0.211 0.166,-0.217 0.154,-0.222C0.122,-0.238 0.1,-0.253 0.087,-0.269C0.07,-0.289 0.062,-0.314 0.062,-0.346C0.062,-0.387 0.076,-0.421 0.104,-0.448C0.133,-0.475 0.169,-0.489 0.21,-0.489C0.271,-0.489 0.316,-0.457 0.346,-0.395Z" style="fill:white;fill-rule:nonzero;stroke:rgb(255,254,249);stroke-width:0.01px;stroke-linecap:butt;stroke-miterlimit:2;"/>
                </g>
                <g transform="matrix(96,0,0,96,1814,1564.5)">
                    <path d="M0.387,-0.419L0.522,-0.255L0.527,-0.26C0.542,-0.276 0.555,-0.292 0.568,-0.307C0.581,-0.322 0.594,-0.338 0.606,-0.354L0.68,-0.277C0.671,-0.264 0.659,-0.249 0.644,-0.232C0.629,-0.215 0.612,-0.195 0.591,-0.172L0.731,-0L0.589,-0L0.514,-0.092C0.445,-0.021 0.373,0.015 0.299,0.015C0.232,0.015 0.175,-0.007 0.129,-0.049C0.083,-0.092 0.061,-0.145 0.061,-0.208C0.061,-0.284 0.097,-0.346 0.169,-0.396L0.218,-0.43C0.219,-0.43 0.22,-0.431 0.222,-0.432C0.223,-0.433 0.226,-0.435 0.229,-0.438C0.179,-0.491 0.154,-0.543 0.154,-0.594C0.154,-0.645 0.17,-0.686 0.204,-0.718C0.237,-0.75 0.281,-0.766 0.334,-0.766C0.386,-0.766 0.429,-0.751 0.463,-0.72C0.497,-0.689 0.514,-0.65 0.514,-0.603C0.514,-0.57 0.504,-0.541 0.486,-0.514C0.468,-0.488 0.435,-0.456 0.387,-0.419ZM0.296,-0.355L0.29,-0.351C0.243,-0.319 0.212,-0.293 0.195,-0.273C0.178,-0.254 0.17,-0.233 0.17,-0.211C0.17,-0.18 0.182,-0.152 0.208,-0.125C0.234,-0.1 0.262,-0.088 0.293,-0.088C0.337,-0.088 0.388,-0.117 0.445,-0.174L0.296,-0.355ZM0.321,-0.5L0.33,-0.506C0.346,-0.518 0.359,-0.529 0.37,-0.538C0.38,-0.547 0.388,-0.554 0.392,-0.561C0.402,-0.573 0.407,-0.587 0.407,-0.605C0.407,-0.625 0.4,-0.641 0.387,-0.653C0.373,-0.666 0.355,-0.672 0.333,-0.672C0.312,-0.672 0.295,-0.666 0.281,-0.653C0.267,-0.641 0.26,-0.625 0.26,-0.606C0.26,-0.584 0.269,-0.562 0.287,-0.541L0.315,-0.507C0.316,-0.505 0.318,-0.503 0.321,-0.5Z" style="fill:white;fill-rule:nonzero;stroke:rgb(255,254,249);stroke-width:0.01px;stroke-linecap:butt;stroke-miterlimit:2;"/>
                </g>
                <g transform="matrix(96,0,0,96,1913.796875,1564.5)">
                    <path d="M0.857,0.014L0.714,0.014L0.655,-0.047C0.592,-0.007 0.522,0.014 0.445,0.014C0.345,0.014 0.257,-0.02 0.179,-0.088C0.095,-0.162 0.053,-0.258 0.053,-0.374C0.053,-0.487 0.093,-0.582 0.172,-0.658C0.25,-0.731 0.341,-0.768 0.447,-0.768C0.542,-0.768 0.628,-0.736 0.704,-0.671C0.795,-0.594 0.841,-0.493 0.841,-0.368C0.841,-0.271 0.805,-0.184 0.733,-0.108L0.857,0.014ZM0.544,-0.298L0.654,-0.189C0.702,-0.24 0.726,-0.302 0.726,-0.375C0.726,-0.457 0.699,-0.524 0.646,-0.579C0.592,-0.634 0.525,-0.661 0.445,-0.661C0.365,-0.661 0.298,-0.634 0.246,-0.579C0.194,-0.525 0.167,-0.456 0.167,-0.373C0.167,-0.291 0.194,-0.225 0.249,-0.173C0.305,-0.119 0.369,-0.093 0.441,-0.093C0.491,-0.093 0.535,-0.104 0.575,-0.126L0.397,-0.298L0.544,-0.298Z" style="fill:white;fill-rule:nonzero;stroke:rgb(255,254,249);stroke-width:0.01px;stroke-linecap:butt;stroke-miterlimit:2;"/>
                </g>
                <g transform="matrix(96,0,0,96,1999.578125,1564.5)">
                    <path d="M0.179,-0.476L0.179,-0.203C0.179,-0.124 0.21,-0.084 0.272,-0.084C0.335,-0.084 0.366,-0.124 0.366,-0.203L0.366,-0.476L0.476,-0.476L0.476,-0.2C0.476,-0.162 0.471,-0.129 0.461,-0.102C0.452,-0.077 0.437,-0.055 0.414,-0.035C0.377,-0.002 0.33,0.014 0.272,0.014C0.215,0.014 0.168,-0.002 0.131,-0.035C0.109,-0.055 0.092,-0.077 0.083,-0.102C0.074,-0.124 0.069,-0.157 0.069,-0.2L0.069,-0.476L0.179,-0.476Z" style="fill:white;fill-rule:nonzero;stroke:rgb(255,254,249);stroke-width:0.01px;stroke-linecap:butt;stroke-miterlimit:2;"/>
                </g>
                <g transform="matrix(96,0,0,96,2051.890625,1564.5)">
                    <path d="M0.42,-0.476L0.53,-0.476L0.53,-0L0.42,-0L0.42,-0.05C0.375,-0.007 0.326,0.014 0.274,0.014C0.208,0.014 0.154,-0.01 0.111,-0.058C0.068,-0.106 0.047,-0.167 0.047,-0.239C0.047,-0.311 0.068,-0.37 0.111,-0.417C0.153,-0.465 0.207,-0.489 0.271,-0.489C0.326,-0.489 0.376,-0.466 0.42,-0.42L0.42,-0.476ZM0.159,-0.239C0.159,-0.194 0.171,-0.157 0.196,-0.128C0.221,-0.099 0.252,-0.084 0.291,-0.084C0.331,-0.084 0.364,-0.098 0.389,-0.126C0.414,-0.155 0.427,-0.192 0.427,-0.237C0.427,-0.281 0.414,-0.318 0.389,-0.347C0.364,-0.375 0.332,-0.39 0.292,-0.39C0.254,-0.39 0.222,-0.375 0.197,-0.347C0.172,-0.318 0.159,-0.282 0.159,-0.239Z" style="fill:white;fill-rule:nonzero;stroke:rgb(255,254,249);stroke-width:0.01px;stroke-linecap:butt;stroke-miterlimit:2;"/>
                </g>
                <g transform="matrix(96,0,0,96,2109.453125,1564.5)">
                    <path d="M0.069,-0.476L0.18,-0.476L0.18,-0.432C0.218,-0.47 0.261,-0.489 0.31,-0.489C0.365,-0.489 0.408,-0.471 0.439,-0.437C0.466,-0.407 0.479,-0.359 0.479,-0.292L0.479,-0L0.369,-0L0.369,-0.266C0.369,-0.312 0.362,-0.345 0.349,-0.363C0.336,-0.381 0.313,-0.39 0.28,-0.39C0.243,-0.39 0.217,-0.378 0.202,-0.354C0.187,-0.33 0.18,-0.289 0.18,-0.229L0.18,-0L0.069,-0L0.069,-0.476Z" style="fill:white;fill-rule:nonzero;stroke:rgb(255,254,249);stroke-width:0.01px;stroke-linecap:butt;stroke-miterlimit:2;"/>
                </g>
                <g transform="matrix(96,0,0,96,2162.09375,1564.5)">
                    <path d="M0.183,-0.373L0.183,-0L0.073,-0L0.073,-0.373L0.026,-0.373L0.026,-0.476L0.073,-0.476L0.073,-0.65L0.183,-0.65L0.183,-0.476L0.268,-0.476L0.268,-0.373L0.183,-0.373Z" style="fill:white;fill-rule:nonzero;stroke:rgb(255,254,249);stroke-width:0.01px;stroke-linecap:butt;stroke-miterlimit:2;"/>
                </g>
                <g transform="matrix(96,0,0,96,2188.34375,1564.5)">
                    <path d="M0.179,-0.476L0.179,-0.203C0.179,-0.124 0.21,-0.084 0.272,-0.084C0.335,-0.084 0.366,-0.124 0.366,-0.203L0.366,-0.476L0.476,-0.476L0.476,-0.2C0.476,-0.162 0.471,-0.129 0.461,-0.102C0.452,-0.077 0.437,-0.055 0.414,-0.035C0.377,-0.002 0.33,0.014 0.272,0.014C0.215,0.014 0.168,-0.002 0.131,-0.035C0.109,-0.055 0.092,-0.077 0.083,-0.102C0.074,-0.124 0.069,-0.157 0.069,-0.2L0.069,-0.476L0.179,-0.476Z" style="fill:white;fill-rule:nonzero;stroke:rgb(255,254,249);stroke-width:0.01px;stroke-linecap:butt;stroke-miterlimit:2;"/>
                </g>
                <g transform="matrix(96,0,0,96,2240.65625,1564.5)">
                    <path d="M0.069,-0.476L0.179,-0.476L0.179,-0.432C0.2,-0.454 0.218,-0.469 0.233,-0.477C0.249,-0.485 0.269,-0.489 0.293,-0.489C0.347,-0.489 0.39,-0.465 0.421,-0.418C0.455,-0.465 0.502,-0.489 0.561,-0.489C0.668,-0.489 0.722,-0.424 0.722,-0.294L0.722,-0L0.611,-0L0.611,-0.264C0.611,-0.31 0.606,-0.342 0.595,-0.361C0.583,-0.38 0.565,-0.39 0.539,-0.39C0.508,-0.39 0.486,-0.378 0.472,-0.355C0.459,-0.333 0.452,-0.296 0.452,-0.246L0.452,-0L0.341,-0L0.341,-0.263C0.341,-0.347 0.317,-0.39 0.268,-0.39C0.237,-0.39 0.215,-0.378 0.2,-0.355C0.186,-0.332 0.179,-0.295 0.179,-0.246L0.179,-0L0.069,-0L0.069,-0.476Z" style="fill:white;fill-rule:nonzero;stroke:rgb(255,254,249);stroke-width:0.01px;stroke-linecap:butt;stroke-miterlimit:2;"/>
                </g>
                <g transform="matrix(96,0,0,96,2346.21875,1564.5)">
                    <path d="M0.647,-0.713L0.647,-0.579C0.582,-0.634 0.514,-0.661 0.443,-0.661C0.366,-0.661 0.301,-0.633 0.248,-0.578C0.194,-0.522 0.167,-0.455 0.167,-0.375C0.167,-0.295 0.194,-0.229 0.248,-0.174C0.301,-0.12 0.366,-0.093 0.444,-0.093C0.484,-0.093 0.518,-0.099 0.546,-0.112C0.562,-0.119 0.578,-0.128 0.594,-0.139C0.611,-0.15 0.629,-0.163 0.647,-0.179L0.647,-0.042C0.582,-0.005 0.514,0.014 0.442,0.014C0.335,0.014 0.243,-0.024 0.167,-0.099C0.091,-0.175 0.053,-0.266 0.053,-0.374C0.053,-0.47 0.084,-0.555 0.148,-0.63C0.226,-0.722 0.327,-0.769 0.451,-0.769C0.519,-0.769 0.584,-0.75 0.647,-0.713Z" style="fill:white;fill-rule:nonzero;stroke:rgb(255,254,249);stroke-width:0.01px;stroke-linecap:butt;stroke-miterlimit:2;"/>
                </g>
                <g transform="matrix(96,0,0,96,2413.484375,1564.5)">
                    <path d="M0.047,-0.241C0.047,-0.31 0.071,-0.368 0.121,-0.417C0.17,-0.465 0.23,-0.489 0.3,-0.489C0.371,-0.489 0.431,-0.465 0.481,-0.416C0.53,-0.368 0.554,-0.308 0.554,-0.237C0.554,-0.166 0.53,-0.106 0.48,-0.058C0.431,-0.01 0.37,0.014 0.298,0.014C0.227,0.014 0.167,-0.011 0.119,-0.06C0.071,-0.108 0.047,-0.168 0.047,-0.241ZM0.159,-0.239C0.159,-0.192 0.172,-0.154 0.197,-0.126C0.223,-0.098 0.258,-0.084 0.3,-0.084C0.343,-0.084 0.378,-0.098 0.403,-0.126C0.429,-0.154 0.442,-0.191 0.442,-0.237C0.442,-0.283 0.429,-0.32 0.403,-0.348C0.377,-0.376 0.343,-0.39 0.3,-0.39C0.258,-0.39 0.224,-0.376 0.198,-0.348C0.172,-0.32 0.159,-0.284 0.159,-0.239Z" style="fill:white;fill-rule:nonzero;stroke:rgb(255,254,249);stroke-width:0.01px;stroke-linecap:butt;stroke-miterlimit:2;"/>
                </g>
                <g transform="matrix(96,0,0,96,2471.1875,1564.5)">
                    <path d="M0.069,-0.476L0.179,-0.476L0.179,-0.432C0.2,-0.454 0.218,-0.469 0.233,-0.477C0.249,-0.485 0.269,-0.489 0.293,-0.489C0.347,-0.489 0.39,-0.465 0.421,-0.418C0.455,-0.465 0.502,-0.489 0.561,-0.489C0.668,-0.489 0.722,-0.424 0.722,-0.294L0.722,-0L0.611,-0L0.611,-0.264C0.611,-0.31 0.606,-0.342 0.595,-0.361C0.583,-0.38 0.565,-0.39 0.539,-0.39C0.508,-0.39 0.486,-0.378 0.472,-0.355C0.459,-0.333 0.452,-0.296 0.452,-0.246L0.452,-0L0.341,-0L0.341,-0.263C0.341,-0.347 0.317,-0.39 0.268,-0.39C0.237,-0.39 0.215,-0.378 0.2,-0.355C0.186,-0.332 0.179,-0.295 0.179,-0.246L0.179,-0L0.069,-0L0.069,-0.476Z" style="fill:white;fill-rule:nonzero;stroke:rgb(255,254,249);stroke-width:0.01px;stroke-linecap:butt;stroke-miterlimit:2;"/>
                </g>
                <g transform="matrix(96,0,0,96,2548.296875,1564.5)">
                    <path d="M0.179,0.259L0.069,0.259L0.069,-0.476L0.179,-0.476L0.179,-0.424C0.222,-0.467 0.272,-0.489 0.327,-0.489C0.392,-0.489 0.446,-0.465 0.488,-0.417C0.531,-0.369 0.553,-0.308 0.553,-0.235C0.553,-0.164 0.531,-0.105 0.489,-0.057C0.446,-0.01 0.393,0.014 0.329,0.014C0.273,0.014 0.223,-0.009 0.179,-0.053L0.179,0.259ZM0.44,-0.235C0.44,-0.28 0.428,-0.318 0.403,-0.346C0.378,-0.375 0.347,-0.39 0.309,-0.39C0.268,-0.39 0.236,-0.376 0.21,-0.348C0.185,-0.32 0.173,-0.283 0.173,-0.237C0.173,-0.193 0.185,-0.156 0.21,-0.127C0.235,-0.099 0.268,-0.084 0.308,-0.084C0.346,-0.084 0.378,-0.099 0.402,-0.127C0.428,-0.156 0.44,-0.192 0.44,-0.235Z" style="fill:white;fill-rule:nonzero;stroke:rgb(255,254,249);stroke-width:0.01px;stroke-linecap:butt;stroke-miterlimit:2;"/>
                </g>
                <g transform="matrix(96,0,0,96,2605.859375,1564.5)">
                    <path d="M0.179,-0.476L0.179,-0.203C0.179,-0.124 0.21,-0.084 0.272,-0.084C0.335,-0.084 0.366,-0.124 0.366,-0.203L0.366,-0.476L0.476,-0.476L0.476,-0.2C0.476,-0.162 0.471,-0.129 0.461,-0.102C0.452,-0.077 0.437,-0.055 0.414,-0.035C0.377,-0.002 0.33,0.014 0.272,0.014C0.215,0.014 0.168,-0.002 0.131,-0.035C0.109,-0.055 0.092,-0.077 0.083,-0.102C0.074,-0.124 0.069,-0.157 0.069,-0.2L0.069,-0.476L0.179,-0.476Z" style="fill:white;fill-rule:nonzero;stroke:rgb(255,254,249);stroke-width:0.01px;stroke-linecap:butt;stroke-miterlimit:2;"/>
                </g>
                <g transform="matrix(96,0,0,96,2658.171875,1564.5)">
                    <path d="M0.183,-0.373L0.183,-0L0.073,-0L0.073,-0.373L0.026,-0.373L0.026,-0.476L0.073,-0.476L0.073,-0.65L0.183,-0.65L0.183,-0.476L0.268,-0.476L0.268,-0.373L0.183,-0.373Z" style="fill:white;fill-rule:nonzero;stroke:rgb(255,254,249);stroke-width:0.01px;stroke-linecap:butt;stroke-miterlimit:2;"/>
                </g>
                <g transform="matrix(96,0,0,96,2684.421875,1564.5)">
                    <path d="M0.179,-0.476L0.179,-0L0.069,-0L0.069,-0.476L0.179,-0.476ZM0.053,-0.673C0.053,-0.693 0.06,-0.709 0.074,-0.723C0.088,-0.737 0.104,-0.744 0.124,-0.744C0.144,-0.744 0.161,-0.737 0.175,-0.723C0.189,-0.709 0.196,-0.693 0.196,-0.673C0.196,-0.653 0.189,-0.636 0.175,-0.622C0.161,-0.608 0.144,-0.601 0.125,-0.601C0.105,-0.601 0.088,-0.608 0.074,-0.622C0.06,-0.636 0.053,-0.653 0.053,-0.673Z" style="fill:white;fill-rule:nonzero;stroke:rgb(255,254,249);stroke-width:0.01px;stroke-linecap:butt;stroke-miterlimit:2;"/>
                </g>
                <g transform="matrix(96,0,0,96,2708.328125,1564.5)">
                    <path d="M0.069,-0.476L0.18,-0.476L0.18,-0.432C0.218,-0.47 0.261,-0.489 0.31,-0.489C0.365,-0.489 0.408,-0.471 0.439,-0.437C0.466,-0.407 0.479,-0.359 0.479,-0.292L0.479,-0L0.369,-0L0.369,-0.266C0.369,-0.312 0.362,-0.345 0.349,-0.363C0.336,-0.381 0.313,-0.39 0.28,-0.39C0.243,-0.39 0.217,-0.378 0.202,-0.354C0.187,-0.33 0.18,-0.289 0.18,-0.229L0.18,-0L0.069,-0L0.069,-0.476Z" style="fill:white;fill-rule:nonzero;stroke:rgb(255,254,249);stroke-width:0.01px;stroke-linecap:butt;stroke-miterlimit:2;"/>
                </g>
                <g transform="matrix(96,0,0,96,2760.96875,1564.5)">
                    <path d="M0.529,-0.011C0.529,0.011 0.529,0.031 0.527,0.048C0.526,0.065 0.524,0.08 0.521,0.093C0.513,0.129 0.498,0.16 0.475,0.186C0.432,0.235 0.373,0.26 0.298,0.26C0.234,0.26 0.182,0.243 0.141,0.208C0.099,0.173 0.074,0.125 0.068,0.062L0.178,0.062C0.182,0.086 0.189,0.104 0.199,0.117C0.222,0.146 0.255,0.161 0.299,0.161C0.379,0.161 0.419,0.112 0.419,0.013L0.419,-0.053C0.376,-0.009 0.326,0.014 0.269,0.014C0.204,0.014 0.151,-0.01 0.109,-0.057C0.068,-0.104 0.047,-0.164 0.047,-0.235C0.047,-0.304 0.066,-0.363 0.105,-0.412C0.147,-0.463 0.202,-0.489 0.27,-0.489C0.33,-0.489 0.38,-0.466 0.419,-0.422L0.419,-0.476L0.529,-0.476L0.529,-0.011ZM0.424,-0.237C0.424,-0.283 0.411,-0.32 0.387,-0.348C0.362,-0.376 0.33,-0.39 0.291,-0.39C0.249,-0.39 0.216,-0.375 0.192,-0.344C0.17,-0.316 0.159,-0.28 0.159,-0.236C0.159,-0.193 0.17,-0.158 0.192,-0.13C0.216,-0.1 0.249,-0.084 0.291,-0.084C0.333,-0.084 0.366,-0.1 0.39,-0.13C0.413,-0.158 0.424,-0.194 0.424,-0.237Z" style="fill:white;fill-rule:nonzero;stroke:rgb(255,254,249);stroke-width:0.01px;stroke-linecap:butt;stroke-miterlimit:2;"/>
                </g>
            </g>
        </g>
    </g>
</svg>
